<svg width="1250" height="1250" viewBox="0 0 1250 1250" fill="none" xmlns="http://www.w3.org/2000/svg">
<circle cx="625" cy="625" r="625" fill="#121529"/>
<path d="M635.658 315.947C636.773 315.948 636.773 315.948 637.911 315.948C647.08 315.975 655.971 316.391 664.926 318.55C670.65 320.016 676.216 321.939 681.816 323.814C682.682 324.052 683.548 324.291 684.441 324.537C689.954 326.098 694.784 328.416 699.748 331.23C704.299 333.871 708.776 336.591 713.21 339.424C713.845 340.075 714.48 340.727 715.133 341.398C716.337 344.615 716.337 344.615 717.274 348.455C719.918 358.428 723.862 367.714 728.788 376.776C732.492 382.877 736.953 388.164 741.972 393.225C745.923 396.967 749.817 400.614 754.351 403.637C755.152 404.477 755.954 405.316 756.78 406.182C757.825 409.102 758.628 412.05 759.441 415.043C760.39 418.232 760.39 418.232 761.986 421.065C764.89 425.64 767.993 429.884 771.588 433.946C777.386 439.098 783.67 443.428 790.445 447.192C797.202 450.651 804.104 453.118 811.384 455.232C812.117 455.45 812.851 455.667 813.607 455.89C820.075 457.658 826.659 458.05 833.328 458.229C846.553 458.416 859.27 457.971 872.308 455.624C879.215 454.397 885.814 454.102 892.826 454.307C918.163 478.8 918.163 478.8 926.144 491.326C931.811 500.621 936.225 510.283 939.791 520.555C941.818 527.374 943.499 534.194 943.978 541.309C944.065 545.186 944.062 549.051 944.017 552.929C944.02 554.226 944.023 555.524 944.026 556.86C943.98 565.821 943.32 574.453 941.124 583.158C938.379 592.966 934.503 602.791 929.707 611.783C923.266 623.092 915.205 633.388 907.117 643.55C898.726 654.119 891.569 664.687 885.654 676.886C882.597 683.658 880.03 690.554 878.019 697.709C877.746 699.383 877.493 701.061 877.267 702.741C876.873 704.954 876.873 704.954 876.168 706.964C874.562 708.899 872.795 710.497 870.929 712.181C866.303 716.853 862.921 722.653 859.509 728.25C857.873 731.072 856.271 733.908 854.698 736.765C851.324 742.875 847.756 748.864 844.181 754.858C838.343 764.661 832.633 774.529 826.992 784.446C823.032 791.406 819.022 798.332 814.97 805.239C808.913 815.577 803.059 826.023 797.226 836.489C794.713 840.986 792.174 845.468 789.635 849.951C781.147 864.955 772.668 879.96 764.473 895.126C763.983 896.033 763.493 896.94 762.988 897.874C761.04 901.48 759.092 905.086 757.149 908.695C755.739 911.309 754.323 913.919 752.905 916.528C752.481 917.318 752.057 918.107 751.621 918.921C750.603 920.787 749.532 922.623 748.451 924.453C746.6 925.378 746.6 925.378 744.46 925.861C735.62 927.375 726.912 927.574 717.969 927.572C715.443 927.576 712.918 927.61 710.392 927.645C702.242 927.697 694.541 927.307 686.577 925.476C684.058 924.852 681.545 924.204 679.04 923.527C677.78 923.189 676.521 922.852 675.223 922.504C665.774 919.922 656.868 916.35 647.862 912.537C646.831 912.101 645.799 911.665 644.736 911.216C635.292 907.201 625.929 903.012 616.589 898.762C615.518 898.277 614.448 897.792 613.345 897.292C611.931 896.648 611.931 896.648 610.49 895.99C607.771 894.835 605.038 893.881 602.224 892.986C602.526 893.547 602.828 894.108 603.139 894.685C605.591 899.387 607.581 903.992 609.093 909.074C611.154 918.402 610.987 928.031 610.865 937.536C610.689 942.826 610.145 947.758 608.703 952.853C606.094 960.791 602.785 968.168 598.523 975.354C594.381 981.58 589.759 987.138 584.351 992.302C578.985 996.939 573.36 1000.79 567.056 1004.04C559.477 1007.37 551.606 1010.25 543.489 1011.94C536.555 1012.86 529.604 1012.88 522.633 1012.37C514.469 1011.36 506.637 1009.27 498.946 1006.36C492.394 1003.47 486.636 999.661 480.867 995.455C475.942 991.58 471.722 987.473 467.798 982.585C463.148 976.21 459.229 969.599 455.998 962.397C453.767 956.581 451.936 950.649 450.803 944.52C449.839 935.342 449.767 925.751 450.872 916.582C451.932 910.201 453.65 904.499 456.172 898.539C457.024 896.681 457.886 894.827 458.775 892.986C457.71 892.95 457.71 892.95 456.623 892.914C445.627 892.352 434.713 890.712 424.106 887.716C411.883 883.91 400.386 878.163 389.363 871.7C385.795 869.413 382.468 866.97 379.183 864.296C378.312 863.61 377.441 862.924 376.544 862.217C368.228 855.572 361.397 848.549 354.918 840.078C350.813 834.547 347.425 828.626 344.015 822.649C343.57 821.943 343.125 821.237 342.666 820.509C339.05 814.631 337.153 808.091 335.067 801.555C334.66 800.27 334.253 798.985 333.834 797.661C333.513 796.806 333.192 795.951 332.862 795.069C331.487 790.437 330.676 785.803 330.132 781.003C329.933 776.448 329.955 771.91 330.017 767.352C330.025 766.166 330.033 764.98 330.042 763.758C330.064 760.868 330.094 757.979 330.132 755.089C335.713 755.492 341.025 755.929 346.386 757.634C351.753 759.417 356.786 761.351 361.599 764.344C364.129 765.962 366.244 767.652 368.428 769.72C374.141 776.676 377.912 785.039 381.959 793.034C383.583 796.236 385.208 799.436 386.842 802.632C387.891 804.687 388.928 806.747 389.952 808.814C390.426 809.748 390.9 810.682 391.388 811.645C391.802 812.475 392.216 813.305 392.642 814.16C393.087 814.824 393.532 815.487 393.991 816.171C395.212 816.782 396.434 817.393 397.693 818.022C400.46 817.934 400.46 817.934 403.246 817.097C405.804 815.794 405.804 815.794 407.873 814.32C408.178 814.015 408.484 813.709 408.798 813.395C409.27 810.169 409.27 810.169 409.216 807.664C409.078 806.806 408.941 805.949 408.798 805.065C406.924 800.837 404.494 796.999 402.031 793.092C401.361 791.995 400.691 790.899 400.001 789.769C398.016 786.527 396.007 783.3 393.991 780.077C392.442 777.589 390.894 775.1 389.354 772.606C388.498 771.225 387.634 769.85 386.761 768.48C385.725 766.824 384.763 765.124 383.81 763.418C383.102 761.21 383.102 761.21 382.885 758.791C382.484 751.431 382.251 744.026 383.485 736.739C385.27 730.18 387.945 724.008 390.613 717.772C393.832 710.07 395.823 702.126 397.693 694.007C398.036 692.59 398.036 692.59 398.387 691.144C400.16 682.573 399.983 673.652 399.676 664.94C399.365 659.31 398.345 654.063 396.767 648.659C393.741 638.921 390.067 629.722 384.765 620.974C381.415 615.885 377.973 611.169 373.489 607.019C371.433 605.336 369.397 603.806 367.152 602.384C365.597 601.693 364.035 601.018 362.466 600.36C360.127 599.264 360.127 599.264 357.897 597.757C355.78 595.112 354.038 592.369 352.268 589.482C349.648 585.303 346.596 581.778 343.089 578.322C335.68 571.582 327.405 566.169 319.027 560.738C318.11 560.127 317.194 559.516 316.25 558.887C316.083 555.1 316.087 551.586 316.681 547.838C317.297 544.836 317.971 541.855 318.679 538.873C318.928 537.813 319.176 536.753 319.433 535.66C321.378 527.649 323.726 520.044 327.356 512.612C328.259 511.057 329.177 509.509 330.132 507.985C333.504 510.114 336.576 512.42 339.619 514.984C347.385 521.241 356.018 526.392 364.87 530.959C374.923 535.524 385.834 538.662 396.632 540.932C406.917 542.82 417.237 542.834 427.663 542.452C437.888 541.766 447.796 539.274 457.578 536.317C468.686 532.742 479.204 527.552 489.142 521.462C498.566 515.212 506.995 507.695 514.696 499.432C520.86 492.556 525.842 485.084 530.199 476.955C531.718 474.049 533.21 471.131 534.666 468.194C535.453 466.613 536.272 465.047 537.097 463.486C541.378 454.376 543.603 443.745 545.602 433.894C547.488 423.367 547.208 412.707 546.557 402.07C545.807 392.152 543.88 382.418 541.143 372.864C539.948 369.622 538.689 366.44 537.307 363.273C537.046 362.468 536.784 361.663 536.515 360.833C536.821 359.611 537.126 358.39 537.441 357.131C545.704 349.033 555.614 342.266 565.436 336.192C576.517 329.725 588.184 323.93 600.482 320.187C612.139 316.941 623.608 315.882 635.658 315.947Z" fill="#F9F6F0"/>
<path d="M632.937 484.558C634.194 484.564 635.451 484.569 636.745 484.574C647.289 484.701 657.116 485.528 667.35 488.196C680.26 491.749 692.527 496.766 704.258 503.242C714.821 509.482 723.86 517.119 732.716 525.569C733.817 526.596 733.817 526.596 734.939 527.644C741.26 533.709 746.728 540.437 751.506 547.783C758.68 559.22 764.703 571.129 769.041 583.932C772.1 593.293 774.274 602.644 775.105 612.469C775.898 624.865 776.393 637.899 774.189 650.162C773.664 652.445 773.103 654.721 772.512 656.988C772.16 658.455 771.809 659.923 771.46 661.391C769.407 669.806 767.051 677.861 763.257 685.678C762.951 686.316 762.644 686.955 762.329 687.613C756.963 698.684 750.731 708.583 742.896 718.069C740.215 721.255 737.446 724.317 734.567 727.324C733.552 728.427 733.552 728.427 732.517 729.551C725.902 736.508 718.476 742.37 710.505 747.685C702.509 752.757 694.236 757.995 685.227 761.047C683.475 761.537 681.72 762.019 679.964 762.493C678.85 762.867 677.737 763.242 676.591 763.628C668.334 766.399 660.036 768.766 651.359 769.686C644.994 770.154 638.621 770.207 632.243 770.244C630.896 770.256 629.549 770.269 628.161 770.283C618.578 770.241 609.727 769.048 600.372 767.12C599.537 766.957 598.703 766.794 597.843 766.626C593.014 765.633 588.3 764.302 583.713 762.493C582.164 761.579 580.622 760.653 579.086 759.716C577.722 759.181 576.353 758.663 574.979 758.154C567.494 755.218 560.609 751.146 553.968 746.637C547.082 741.607 540.823 735.985 534.663 730.101C533.861 729.348 533.059 728.595 532.233 727.82C525.185 721.025 519.083 713.556 513.883 705.254C511.801 701.849 509.81 698.394 507.824 694.932C507.377 694.203 506.931 693.475 506.472 692.724C502.565 686.191 499.904 679.043 497.643 671.795C491.489 650.091 491.489 650.091 491.054 639.464C490.707 625.627 490.936 612.22 493.941 598.682C494.095 597.964 494.249 597.246 494.408 596.506C496.733 585.93 500.196 576.142 504.975 566.427C510.251 555.916 516.133 545.965 523.636 536.87C531.812 527.425 540.794 518.411 550.685 510.761C560.857 503.733 572.06 497.743 583.558 493.191C593.909 489.329 604.382 486.759 615.31 485.239C621.187 484.595 627.029 484.533 632.937 484.558Z" fill="#FDA303"/>
<path d="M443.099 286.043C445.556 286.563 448.005 287.122 450.445 287.72C451.689 288.014 452.933 288.307 454.215 288.61C464.454 291.311 473.99 295.382 483.342 300.323C491.886 305.137 499.521 311.433 506.664 318.117C507.352 318.775 508.041 319.434 508.75 320.112C509.429 320.732 510.108 321.353 510.807 321.992C517.201 328.036 522.412 335.01 527.26 342.324C532.801 351.33 537.878 360.488 541.2 370.551C541.556 371.628 541.556 371.628 541.92 372.728C545.221 383.042 546.865 393.55 547.62 404.331C548.129 414.36 548.261 424.393 546.43 434.296C545.237 440.098 543.792 445.704 541.857 451.306C541.386 452.673 540.932 454.046 540.496 455.425C537.444 465.038 533.078 474.446 527.94 483.123C522.75 491.236 516.34 498.297 509.676 505.209C508.682 506.29 508.682 506.29 507.669 507.392C501.666 513.745 494.751 518.935 487.464 523.718C476.676 530.342 465.129 534.657 453.138 538.523C450.711 539.227 448.282 539.817 445.817 540.377C444.335 540.762 444.335 540.762 442.824 541.154C432.36 543.55 421.951 543.619 411.256 543.414C404.004 543.171 397.317 542.27 390.288 540.377C389.574 540.193 388.859 540.009 388.123 539.82C378.42 537.294 369.429 534.159 360.553 529.449C349.487 523.184 339.601 516.514 330.132 507.985C330.132 507.374 330.132 506.764 330.132 506.134C329.216 505.829 328.299 505.523 327.355 505.209C324.356 502.002 321.725 498.489 319.026 495.029C318.432 494.306 317.838 493.583 317.226 492.838C310.303 484.003 305.201 473.722 300.516 463.562C298.497 458.745 297.121 453.827 295.889 448.754C295.53 447.484 295.171 446.213 294.801 444.904C292.33 435.411 291.759 425.843 291.623 416.062C291.554 405.381 291.928 394.928 294.443 384.491C297.567 372.759 302.189 361.585 307.924 350.899C309.669 347.951 311.512 345.132 313.473 342.324C314.122 341.384 314.771 340.444 315.44 339.475C322.572 329.691 331.093 320.93 340.245 313.017C348.619 306.127 357.987 300.777 367.749 296.115C378.455 291.244 389.845 288.016 401.394 285.869C414.974 283.986 429.568 283.809 443.099 286.043Z" fill="#EA3827"/>
<path d="M971.491 620.895C976.45 621.467 980.966 622.622 985.72 624.134C987.025 624.544 988.331 624.955 989.675 625.377C991.211 625.907 991.211 625.907 992.777 626.447C993.082 626.753 993.388 627.058 993.702 627.373C993.175 632.904 991.989 637.789 990.232 643.048C989.728 644.598 989.226 646.147 988.724 647.697C988.473 648.474 988.221 649.25 987.961 650.05C986.447 654.796 985.075 659.584 983.685 664.367C982.419 668.701 981.123 673.026 979.82 677.349C991.562 661.526 1002.94 645.489 1014.06 629.224C1016.33 629.311 1016.33 629.311 1019.62 630.149C1022.51 631.941 1025.12 634.038 1027.77 636.165C1028.49 636.727 1029.21 637.289 1029.95 637.868C1035.03 641.863 1035.03 641.863 1036.27 643.106C1036.27 644.939 1036.27 646.771 1036.27 648.659C1035.32 649.684 1035.32 649.684 1034.34 650.731C1029.39 656.079 1024.6 661.506 1020.03 667.187C1017.33 670.475 1014.55 673.682 1011.75 676.886C1006.85 682.502 1002.08 688.202 997.404 694.008C998.235 693.436 999.065 692.865 999.921 692.276C1006.67 687.675 1013.5 683.382 1020.67 679.453C1025.75 676.661 1030.62 673.611 1035.47 670.437C1036.35 669.969 1037.22 669.502 1038.13 669.02C1041.24 668.354 1041.24 668.354 1043.68 668.094C1046.38 671.341 1048.69 674.65 1050.85 678.275C1051.42 679.21 1051.99 680.145 1052.57 681.109C1053 682.006 1053.42 682.903 1053.86 683.827C1054.05 686.488 1054.05 686.488 1053.86 688.455C1043.64 694.583 1033.27 700.429 1022.84 706.184C1014.43 710.834 1006.13 715.64 997.88 720.566C997.018 721.076 996.156 721.586 995.268 722.112C994.516 722.562 993.764 723.011 992.989 723.475C990.926 724.549 990.926 724.549 987.224 725.474C987.729 726.283 987.729 726.283 988.244 727.108C990.88 731.407 993.395 735.752 995.727 740.224C996.16 741.053 996.593 741.882 997.039 742.737C998.848 747.078 1000.18 751.403 1001.11 756.015C1001.46 759.555 1001.51 763.045 1001.45 766.6C1001.44 767.534 1001.44 768.467 1001.43 769.429C1001.33 774.216 1001.09 778.807 1000.01 783.49C999.491 785.143 998.933 786.784 998.33 788.407C998.015 789.299 997.7 790.192 997.376 791.111C995.02 797.254 992.007 802.906 988.468 808.446C981.185 818.849 972.34 827.512 962.944 835.985C961.431 837.349 959.928 838.724 958.426 840.1C948.86 848.858 938.994 857.261 929.141 865.69C923.014 870.932 916.901 876.188 910.814 881.476C905.528 886.066 900.206 890.611 894.853 895.123C892.832 896.828 890.815 898.537 888.801 900.25C883.557 904.709 878.28 909.109 872.887 913.387C868.699 916.723 864.571 920.131 860.433 923.528C857.044 926.309 853.651 929.086 850.253 931.857C849.534 932.444 848.816 933.031 848.076 933.636C842.867 937.852 837.528 941.882 832.154 945.883C828.064 948.937 824.025 952.046 820.012 955.201C794.914 974.916 767.72 994.635 738.616 1007.93C736.534 1008.73 736.534 1008.73 732.716 1009.6C730.493 1009.68 730.493 1009.68 728.262 1009.54C726.983 1009.25 725.704 1008.97 724.387 1008.67C723.623 1008.1 722.86 1007.53 722.073 1006.94C721.615 1006.29 721.157 1005.64 720.685 1004.97C720.227 1003.6 720.227 1003.6 719.759 1002.19C719.731 997.529 720.097 992.937 720.685 988.311C722.145 982.366 724.473 976.831 727.04 971.291C728.442 968.063 729.644 964.773 730.865 961.472C734.283 952.266 738.373 943.572 742.795 934.811C743.995 932.433 745.18 930.051 746.353 927.66C755.575 908.909 765.612 890.555 775.961 872.406C779.311 866.527 782.594 860.612 785.874 854.695C804.871 820.455 804.871 820.455 811.486 809.308C814.972 803.43 818.385 797.511 821.794 791.588C830.718 776.095 839.705 760.638 848.803 745.246C850.608 742.188 852.387 739.117 854.161 736.041C864.893 717.514 864.893 717.514 870.613 711.592C872.709 709.636 874.862 707.848 877.092 706.039C877.76 705.295 878.428 704.55 879.116 703.783C882.378 700.811 885.767 698.653 889.625 696.52C894.084 694.309 898.412 692.504 903.2 691.126C910.565 689.546 918.132 689.613 925.629 689.836C933 690.259 939.938 691.84 947.002 693.921C948.059 694.255 949.116 694.589 950.205 694.933C950.429 693.87 950.653 692.807 950.884 691.712C952.505 684.152 954.264 676.74 956.625 669.37C959.922 658.887 962.646 648.226 965.209 637.542C966.436 632.505 967.857 627.617 969.64 622.745C970.251 622.135 970.862 621.524 971.491 620.895Z" fill="#F47008"/>
<path d="M777.198 255.963C791.175 258.01 804.663 261.847 817.749 267.141C827.421 271.245 836.547 276.396 845.048 282.571C854.397 289.913 862.893 298.016 870.35 307.273C870.939 308.13 870.939 308.13 871.54 309.005C871.54 309.616 871.54 310.226 871.54 310.856C872.723 311.199 873.907 311.543 875.126 311.897C879.303 313.313 882.974 315.118 886.705 317.468C891.296 320.727 895.398 324.389 899.304 328.44C903.955 334.033 907.501 340.367 910.869 346.794C912.764 350.787 914.003 354.699 915.037 358.981C915.287 359.986 915.287 359.986 915.541 361.011C917.005 367.512 917.172 373.796 917.12 380.441C917.116 381.551 917.112 382.661 917.109 383.805C917.043 390.54 916.527 396.992 915.46 403.646C914.535 411.216 914.53 418.935 915.037 426.541C915.6 430.423 916.479 433.964 917.814 437.647C918.2 438.764 918.2 438.764 918.595 439.903C919.435 442.047 920.378 443.974 921.516 445.976C926.485 452.448 932.575 458.08 938.344 463.821C939.331 464.806 940.318 465.791 941.304 466.777C943.878 469.347 946.455 471.915 949.032 474.481C951.67 477.111 954.306 479.742 956.943 482.374C962.098 487.52 967.257 492.662 972.417 497.803C972.417 499.636 972.417 501.468 972.417 503.356C970.508 505.612 970.508 505.612 967.79 507.984C964.381 508.595 964.381 508.595 961.311 508.909C960.729 508.315 960.147 507.72 959.547 507.107C954.034 501.483 948.508 495.873 942.967 490.277C940.119 487.4 937.276 484.518 934.446 481.625C931.71 478.828 928.96 476.045 926.201 473.272C925.155 472.215 924.113 471.154 923.077 470.088C919.903 466.825 916.711 463.668 913.186 460.784C910.171 459.128 907.239 457.994 903.932 457.082C902.82 456.708 901.708 456.333 900.562 455.947C895.656 454.817 890.831 454.834 885.823 454.92C880.156 455.166 874.639 456.143 869.052 457.082C859.547 458.651 850.286 459.289 840.652 459.28C839.482 459.281 838.312 459.283 837.106 459.284C828.26 459.181 819.797 458.211 811.192 456.149C802.066 453.322 793.762 449.783 785.47 445.051C781.927 442.748 778.591 440.28 775.289 437.647C774.706 437.226 774.123 436.805 773.521 436.371C771.78 435.042 770.309 433.696 768.811 432.094C765.75 428.243 762.993 424.293 760.482 420.063C758.656 415.976 757.368 411.787 756.049 407.518C755.68 406.771 755.31 406.025 754.929 405.255C752.868 403.261 752.868 403.261 750.359 401.437C744.656 396.912 739.383 392.22 734.568 386.745C728.778 379.165 724.602 370.886 720.721 362.215C718.155 356.238 716.332 350.318 714.905 343.963C714.675 343.116 714.445 342.269 714.207 341.397C713.597 340.786 712.986 340.175 712.356 339.546C712.132 337.623 711.92 335.698 711.756 333.769C711.404 331.007 710.706 328.468 709.985 325.779C708.485 319.053 708.377 312.469 708.365 305.592C708.36 304.537 708.356 303.482 708.351 302.395C708.405 295.801 708.903 289.502 710.505 283.091C711.914 279.092 713.784 275.563 716.058 271.985C717.939 269.566 719.858 267.486 722.114 265.413C724.354 263.682 726.485 262.32 729.015 261.053C735.174 258.596 741.53 256.758 748.066 255.624C757.666 254.349 767.6 254.966 777.198 255.963Z" fill="#598A1E"/>
<path d="M269.118 546.382C275.775 546.146 282.265 546.41 288.828 547.571C292.175 548.427 295.405 549.417 298.665 550.557C300.107 551.038 300.107 551.038 301.579 551.53C306.02 553.071 310.254 554.795 314.398 557.035C315.009 556.119 315.62 555.203 316.249 554.259C316.707 556.55 316.707 556.55 317.175 558.886C318.136 559.458 319.098 560.029 320.089 560.618C327.855 565.307 334.661 570.173 341.237 576.471C342.192 577.215 343.146 577.959 344.129 578.726C348.009 582.184 351.147 586.151 354.194 590.353C354.9 591.657 355.596 592.968 356.276 594.286C357.306 596.153 357.306 596.153 358.821 597.757C361.493 599.297 364.238 600.546 367.039 601.835C369.923 603.307 372.202 604.864 374.67 606.954C378.813 610.917 382.111 615.37 385.217 620.164C390.163 628.095 393.65 636.199 396.535 645.072C397.249 647.496 397.945 649.925 398.617 652.36C398.848 653.181 399.078 654.002 399.315 654.847C400.791 661.288 400.883 667.983 400.866 674.567C400.635 684.209 399.162 693.519 396.769 702.857C394.356 711.126 391.121 719.113 387.906 727.097C386.177 731.461 384.645 735.644 383.81 740.281C383.578 743.411 383.55 746.515 383.578 749.652C383.571 750.455 383.564 751.257 383.556 752.085C383.559 752.868 383.561 753.652 383.564 754.46C383.567 755.509 383.567 755.509 383.57 756.579C383.76 758.902 383.76 758.902 384.572 761.512C385.676 764.383 386.976 766.905 388.52 769.564C389.089 770.547 389.658 771.53 390.244 772.543C390.85 773.579 391.457 774.614 392.081 775.681C392.698 776.749 393.316 777.817 393.952 778.918C396.79 783.804 399.662 788.651 402.724 793.399C403.197 794.138 403.669 794.876 404.156 795.638C405.023 796.98 405.906 798.312 406.807 799.631C407.984 801.453 407.984 801.453 409.723 805.065C410.044 807.946 409.93 810.483 409.723 813.394C408.161 815.13 408.161 815.13 406.021 817.096C405.296 817.497 404.57 817.898 403.823 818.311C402.621 818.626 402.621 818.626 401.394 818.947C400.458 818.909 399.523 818.871 398.559 818.832C397.662 818.564 396.765 818.297 395.841 818.022C394.029 816.507 394.029 816.507 392.139 814.32C390.958 812.297 389.852 810.23 388.798 808.138C388.176 806.914 387.553 805.69 386.911 804.429C386.263 803.137 385.614 801.845 384.966 800.553C377.92 786.348 377.92 786.348 369.927 772.673C367.808 770.22 365.76 768.138 363.246 766.093C359.557 763.585 355.892 761.69 351.747 760.038C343.886 757.413 335.578 756.088 327.442 754.605C326.483 754.386 326.483 754.386 325.504 754.163C325.199 753.858 324.893 753.553 324.579 753.238C323.395 753.047 322.212 752.856 320.992 752.66C311.932 750.913 303.111 747.349 294.732 743.542C287.312 739.681 280.663 734.647 274.335 729.204C270.881 725.951 268.169 722.508 265.579 718.532C262.696 713.791 259.802 708.979 258.117 703.667C257.573 702.55 257.573 702.55 257.018 701.411C256.083 700.514 255.148 699.617 254.184 698.692C251.051 695.677 248.666 692.422 246.26 688.801C243.024 683.625 240.549 678.491 238.483 672.753C238.186 671.826 237.889 670.899 237.583 669.944C237.262 668.985 236.941 668.026 236.611 667.038C235.732 663.466 235.732 663.466 235.537 659.59C235.543 658.172 235.559 656.754 235.584 655.336C235.589 654.577 235.594 653.819 235.599 653.038C235.615 650.633 235.644 648.229 235.674 645.824C235.7 643.416 235.723 641.008 235.74 638.6C235.751 637.108 235.768 635.615 235.79 634.123C235.824 630.206 235.49 626.593 234.807 622.745C234.606 618.389 234.635 614.032 234.633 609.672C234.622 608.51 234.61 607.348 234.599 606.151C234.587 598.85 235.093 591.938 236.658 584.8C238.511 577.698 241.069 570.975 244.409 564.439C246.298 561.127 248.195 558.059 250.771 555.242C251.897 554.261 253.056 553.317 254.242 552.408C254.887 551.874 255.533 551.339 256.198 550.788C258.464 549.227 258.464 549.227 261.085 547.878C263.943 547.002 266.173 546.596 269.118 546.382Z" fill="#5C8C21"/>
<path d="M543.918 849.488C548.171 850.081 552.098 851.183 556.149 852.626C557.305 853.118 558.461 853.609 559.652 854.116C560.6 854.517 560.6 854.517 561.568 854.927C567.107 857.33 572.364 860.054 577.323 863.522C579.863 865.541 582.26 867.643 584.64 869.849C585.427 870.552 586.214 871.254 587.026 871.978C591.449 876.124 595.006 880.463 598.348 885.524C602.582 892.416 606.008 899.336 608.471 907.042C609.906 911.805 610.428 916.619 610.7 921.567C611.381 940.336 611.381 940.336 609.78 948.707C608.164 955.498 605.535 961.962 602.513 968.239C598.805 975.233 594.514 981.459 589.267 987.385C584.42 992.456 579.233 996.738 573.36 1000.57C565.727 1005.06 557.651 1007.87 549.251 1010.55C544.118 1011.96 539.118 1012.54 533.818 1012.7C526.387 1012.77 519.299 1012.18 512.036 1010.49C505.298 1008.66 498.904 1006.6 492.699 1003.35C485.445 999.067 478.72 994.166 472.656 988.311C467.461 982.52 463.224 976.284 459.41 969.512C455.801 962.462 453.284 955.278 451.37 947.589C449.744 938.796 450.03 929.654 450.445 920.75C450.935 915.648 451.792 910.866 453.221 905.943C455.776 898.926 458.875 892.234 462.707 885.813C466.665 879.947 471.291 874.778 476.358 869.849C480.696 865.945 485.163 862.426 490.25 859.537C494.767 857.14 499.391 855.126 504.123 853.19C505.093 852.768 506.062 852.346 507.062 851.91C518.514 847.748 531.934 848.538 543.918 849.488Z" fill="#FB7F11"/>
<path d="M219.825 872.278C223.701 872.625 223.701 872.625 225.693 873.294C227.634 874.187 227.634 874.187 231.105 876.327C233.303 878.641 233.303 878.641 234.807 880.955C235.417 882.176 236.028 883.398 236.658 884.657C236.833 887.284 236.907 889.82 236.894 892.447C236.897 893.232 236.901 894.016 236.904 894.825C236.91 896.528 236.913 898.231 236.911 899.935C236.911 902.64 236.923 905.345 236.938 908.051C236.981 915.744 237.004 923.436 237.01 931.129C237.015 935.838 237.037 940.547 237.07 945.256C237.079 947.041 237.082 948.826 237.077 950.612C237.009 960.715 237.009 960.715 238.353 970.696C240.045 976.366 242.237 981.683 245.218 986.803C248.113 991.152 251.324 994.95 255.167 998.491C259.164 1001.54 263.314 1004.01 267.856 1006.16C270.907 1007.44 273.792 1008.51 277.041 1009.17C280.652 1009.67 284.129 1009.71 287.775 1009.71C288.891 1009.72 288.891 1009.72 290.03 1009.72C291.639 1009.72 293.248 1009.72 294.857 1009.72C298.288 1009.73 301.72 1009.75 305.151 1009.77C311.53 1009.8 317.909 1009.83 324.288 1009.83C328.736 1009.83 333.182 1009.85 337.629 1009.89C339.316 1009.9 341.003 1009.9 342.69 1009.89C347.798 1009.87 352.817 1009.95 357.896 1010.52C360.665 1011.39 362.963 1012.38 365.467 1013.83C367.151 1015.15 367.151 1015.15 368.764 1016.89C370.043 1018.56 370.043 1018.56 371.062 1020.47C371.778 1022.55 371.778 1022.55 372.147 1024.89C372.24 1027.28 372.131 1029.45 371.778 1031.81C371.454 1032.8 371.129 1033.79 370.795 1034.82C369.204 1037.07 367.757 1038.62 365.705 1040.43C362.523 1042.91 362.523 1042.91 360.672 1043.84C358.04 1043.95 355.429 1044 352.796 1044C351.98 1044.01 351.164 1044.02 350.324 1044.02C347.61 1044.04 344.897 1044.05 342.184 1044.06C340.79 1044.07 340.79 1044.07 339.368 1044.07C334.436 1044.09 329.505 1044.1 324.573 1044.11C319.512 1044.12 314.45 1044.15 309.389 1044.19C305.473 1044.22 301.557 1044.22 297.64 1044.23C295.777 1044.23 293.914 1044.24 292.051 1044.26C276.881 1044.39 276.881 1044.39 270.243 1043.06C263.918 1041.53 257.897 1039.69 252.051 1036.8C251.247 1036.38 250.443 1035.95 249.614 1035.51C248.734 1035.06 247.853 1034.6 246.946 1034.13C240.45 1030.58 234.791 1026.33 229.228 1021.45C225.348 1017.78 222.062 1014.02 219.073 1009.6C214.594 1002.55 210.829 995.393 207.993 987.534C205.817 980.84 204.217 974.315 203.54 967.295C203.089 960.409 203.167 953.497 203.152 946.599C203.15 945.759 203.147 944.919 203.144 944.054C203.13 939.617 203.122 935.18 203.118 930.742C203.113 926.176 203.09 921.611 203.064 917.045C203.047 913.515 203.042 909.985 203.041 906.455C203.038 904.771 203.03 903.088 203.018 901.405C203.002 899.049 203.004 896.694 203.01 894.338C203.005 892.333 203.005 892.333 203 890.287C203.34 886.508 203.34 886.508 203.887 884.47C204.527 882.642 205.316 880.868 206.117 879.104C208.777 876.443 208.777 876.443 211.669 874.476C212.395 874.075 213.12 873.675 213.867 873.262C216.297 872.625 216.297 872.625 219.825 872.278Z" fill="#B0D34F"/>
<path d="M1019.62 872.626C1022.74 872.272 1025.75 872.306 1028.87 872.626C1030.96 873.226 1030.96 873.226 1032.86 874.072C1033.99 874.816 1035.11 875.561 1036.27 876.328C1038.17 878.402 1039.44 880.368 1040.9 882.806C1041.21 883.722 1041.51 884.639 1041.83 885.583C1041.93 887.957 1041.98 890.334 1041.99 892.711C1042 893.437 1042 894.163 1042.01 894.911C1042.03 897.322 1042.04 899.733 1042.05 902.144C1042.05 902.973 1042.06 903.803 1042.06 904.658C1042.08 909.068 1042.09 913.478 1042.1 917.888C1042.11 921.501 1042.13 925.113 1042.16 928.725C1042.45 965.622 1042.45 965.622 1039.19 979.895C1037.47 986.027 1035.33 991.817 1032.57 997.566C1032.13 998.485 1031.69 999.403 1031.24 1000.35C1028.53 1005.63 1025.32 1010.29 1021.51 1014.84C1016.86 1020.14 1012.19 1024.57 1006.43 1028.69C999.739 1033.16 993.037 1036.81 985.489 1039.62C980.226 1041.43 975.164 1043.1 969.64 1043.84C966.847 1043.94 964.075 1044 961.282 1044C960.459 1044.01 959.637 1044.02 958.79 1044.02C956.082 1044.04 953.375 1044.05 950.668 1044.06C949.74 1044.06 948.813 1044.07 947.858 1044.07C942.955 1044.09 938.052 1044.1 933.149 1044.11C928.088 1044.12 923.028 1044.16 917.968 1044.19C914.072 1044.22 910.175 1044.22 906.278 1044.23C904.413 1044.23 902.547 1044.24 900.681 1044.26C898.072 1044.28 895.463 1044.28 892.854 1044.28C891.703 1044.29 891.703 1044.29 890.528 1044.31C888.358 1044.29 888.358 1044.29 884.496 1043.84C881.359 1042.14 881.359 1042.14 878.943 1040.14C876.34 1037.25 876.34 1037.25 874.315 1034.59C874.01 1033.97 873.704 1033.36 873.39 1032.73C873.095 1029.63 873.147 1026.59 873.39 1023.48C873.695 1022.33 874.001 1021.19 874.315 1020.01C874.926 1019.02 875.537 1018.02 876.166 1017C878.461 1014.85 880.837 1013.01 883.57 1011.45C887.478 1010.47 890.712 1010.4 894.737 1010.39C895.487 1010.39 896.237 1010.39 897.01 1010.38C898.638 1010.38 900.265 1010.37 901.893 1010.37C904.477 1010.36 907.062 1010.35 909.647 1010.33C916.996 1010.28 924.345 1010.24 931.694 1010.22C936.193 1010.21 940.692 1010.18 945.19 1010.15C946.896 1010.13 948.602 1010.13 950.308 1010.13C959.935 1010.2 959.935 1010.2 969.425 1008.79C974.875 1007 979.929 1004.71 984.889 1001.83C987.722 1000.03 990.328 998.227 992.795 995.943C996.825 991.372 999.946 986.186 1002.96 980.907C1004.27 978.354 1004.96 976.33 1005.73 973.504C1007.77 964.654 1007.85 955.85 1007.84 946.825C1007.84 944.248 1007.85 941.673 1007.87 939.097C1007.91 931.781 1007.93 924.466 1007.94 917.15C1007.94 912.655 1007.96 908.16 1008 903.664C1008.01 901.959 1008.01 900.253 1008 898.548C1008 896.167 1008.01 893.788 1008.03 891.407C1008.04 890.055 1008.04 888.704 1008.04 887.311C1008.27 885.539 1008.27 885.539 1008.51 883.732C1010.21 880.638 1010.21 880.638 1012.21 878.179C1015.1 875.576 1015.1 875.576 1017.77 873.551C1018.38 873.246 1018.99 872.94 1019.62 872.626Z" fill="#B0D34F"/>
<path d="M294.753 214.173C296.585 214.166 298.416 214.159 300.247 214.151C304.06 214.139 307.873 214.137 311.685 214.143C316.559 214.148 321.431 214.12 326.304 214.083C330.076 214.059 333.847 214.056 337.618 214.059C339.415 214.058 341.212 214.049 343.009 214.032C345.52 214.012 348.029 214.021 350.54 214.037C351.272 214.025 352.004 214.013 352.758 214C354.856 214.031 354.856 214.031 358.821 214.607C361.584 215.912 363.731 217.411 366.225 219.234C368.481 221.663 368.481 221.663 369.927 223.861C370.233 224.778 370.538 225.694 370.853 226.638C371.073 229.583 371.187 232.065 370.853 234.967C370.22 236.995 370.22 236.995 369.349 238.901C367.151 242.371 367.151 242.371 364.374 245.09C363.458 245.72 362.542 246.35 361.598 246.999C357.896 247.924 357.896 247.924 354.599 248.039C353.271 248.04 351.943 248.04 350.574 248.041C349.472 248.043 349.472 248.043 348.347 248.046C346.751 248.05 345.156 248.051 343.56 248.052C340.147 248.055 336.735 248.075 333.322 248.094C326.976 248.129 320.63 248.158 314.283 248.156C309.862 248.155 305.442 248.177 301.021 248.213C299.349 248.223 297.677 248.224 296.005 248.217C286.963 248.139 286.963 248.139 278.017 249.283C272.533 250.668 267.327 252.446 262.309 255.058C258.328 257.408 254.718 260.151 251.292 263.252C247.498 267.288 244.773 271.892 241.99 276.657C240.316 280.414 239.128 283.926 238.162 287.917C237.085 294.436 237.242 301.006 237.288 307.596C237.305 310.285 237.302 312.974 237.294 315.664C237.274 323.303 237.284 330.941 237.319 338.58C237.34 343.274 237.333 347.967 237.31 352.66C237.306 354.438 237.313 356.216 237.331 357.994C237.384 363.312 237.347 368.511 236.658 373.79C235.464 376.714 235.464 376.714 233.993 378.988C232.329 381.007 230.748 382.399 228.675 384.028C225.654 384.867 223.122 385.169 219.999 385.3C217.078 385.221 217.078 385.221 214.446 384.896C213.377 384.38 212.308 383.865 211.207 383.334C208.872 381.174 206.957 379.214 205.191 376.566C204.179 374.119 204.179 374.119 203.34 371.013C203.177 368.449 203.113 365.878 203.115 363.308C203.114 362.555 203.112 361.802 203.11 361.026C203.107 358.547 203.117 356.068 203.127 353.588C203.128 351.855 203.128 350.121 203.128 348.387C203.13 344.756 203.137 341.124 203.15 337.493C203.165 332.859 203.169 328.224 203.168 323.59C203.169 320.009 203.174 316.428 203.18 312.847C203.183 311.14 203.185 309.432 203.186 307.725C203.203 287.819 203.203 287.819 205.141 279.202C207.367 271.565 209.89 264.447 213.625 257.381C216.354 252.726 219.417 248.441 222.775 244.222C223.266 243.579 223.756 242.936 224.261 242.273C227.369 238.43 230.909 235.297 234.749 232.191C241.437 227.173 248.499 223.606 256.093 220.159C257.514 219.456 257.514 219.456 258.963 218.739C270.71 214.325 282.395 214.167 294.753 214.173Z" fill="#B0D34F"/>
<path d="M887.273 214.606C890.113 214.266 892.611 214.098 895.44 214.127C896.611 214.118 896.611 214.118 897.805 214.108C900.368 214.092 902.93 214.102 905.493 214.115C907.294 214.112 909.095 214.109 910.895 214.104C914.667 214.099 918.438 214.106 922.209 214.124C927.003 214.145 931.796 214.133 936.59 214.111C940.311 214.097 944.032 214.102 947.753 214.111C949.517 214.114 951.282 214.111 953.047 214.102C967.374 214.047 967.374 214.047 973.977 215.412C982.929 217.615 991.077 220.499 999.256 224.787C1006.12 228.973 1012.23 233.832 1018.06 239.363C1022.61 244.113 1026.37 249.067 1029.77 254.699C1033.37 261.215 1036.69 267.777 1038.7 274.967C1041.37 285.951 1042.37 296.614 1042.3 307.892C1042.3 308.713 1042.29 309.534 1042.29 310.38C1042.29 312.12 1042.29 313.86 1042.29 315.6C1042.29 319.206 1042.28 322.811 1042.26 326.416C1042.23 331.022 1042.24 335.626 1042.25 340.232C1042.25 343.808 1042.25 347.384 1042.24 350.96C1042.23 352.659 1042.23 354.357 1042.24 356.056C1042.24 358.424 1042.22 360.792 1042.2 363.16C1042.2 364.502 1042.19 365.843 1042.19 367.226C1041.83 371.013 1041.83 371.013 1041.24 373.079C1040.59 374.888 1039.83 376.657 1039.05 378.417C1037.08 380.733 1035.05 382.126 1032.57 383.97C1031.96 384.275 1031.35 384.581 1030.72 384.895C1026.67 385.292 1022.74 385.316 1018.69 384.895C1016.59 384.089 1016.59 384.089 1014.93 382.987C1012.21 380.268 1012.21 380.268 1010.22 377.365C1009.66 376.185 1009.09 375.005 1008.51 373.79C1008.18 370.974 1008.02 368.504 1008.06 365.699C1008.06 364.915 1008.06 364.132 1008.05 363.324C1008.05 361.632 1008.05 359.939 1008.06 358.246C1008.08 355.556 1008.07 352.866 1008.06 350.175C1008.03 343.489 1008.04 336.803 1008.05 330.116C1008.06 324.468 1008.05 318.819 1008.03 313.17C1008.02 310.541 1008.03 307.911 1008.05 305.282C1008.05 299.261 1007.99 293.453 1006.82 287.53C1005.46 282.59 1003.85 278.108 1001.4 273.606C998.71 269.54 995.807 265.717 992.463 262.168C988.927 258.989 985.124 256.608 981.032 254.207C975.749 251.772 970.05 250.386 964.371 249.208C958.628 248.243 952.794 248.343 946.986 248.371C944.553 248.383 942.121 248.372 939.688 248.357C935.408 248.332 931.128 248.327 926.847 248.328C919.97 248.33 913.093 248.317 906.216 248.277C903.829 248.267 901.443 248.275 899.057 248.285C897.589 248.279 896.122 248.272 894.655 248.265C893.382 248.266 892.109 248.267 890.798 248.268C887.273 247.924 887.273 247.924 883.735 246.688C882.765 246.179 881.794 245.671 880.794 245.147C878.309 242.496 876.329 239.837 874.316 236.818C873.886 234.023 873.857 231.391 873.911 228.565C874.045 227.623 874.178 226.682 874.316 225.712C875.299 223.467 875.299 223.467 876.63 221.548C877.931 219.899 877.931 219.899 879.869 218.308C882.361 216.864 884.604 215.631 887.273 214.606Z" fill="#B0D34F"/>
<path d="M971.491 620.895C976.45 621.467 980.965 622.622 985.72 624.134C987.025 624.544 988.33 624.955 989.675 625.377C990.699 625.73 991.722 626.084 992.777 626.447C993.235 626.906 993.235 626.906 993.702 627.373C993.175 632.904 991.989 637.789 990.232 643.048C989.728 644.598 989.225 646.147 988.724 647.697C988.472 648.474 988.22 649.25 987.961 650.05C986.447 654.796 985.075 659.584 983.685 664.367C982.419 668.701 981.122 673.026 979.82 677.349C991.561 661.526 1002.94 645.489 1014.06 629.224C1016.33 629.311 1016.33 629.311 1019.62 630.149C1022.51 631.941 1025.12 634.038 1027.77 636.165C1028.49 636.727 1029.21 637.289 1029.95 637.868C1035.03 641.863 1035.03 641.863 1036.27 643.106C1036.27 644.939 1036.27 646.771 1036.27 648.659C1035.64 649.343 1035 650.026 1034.34 650.731C1029.39 656.079 1024.6 661.506 1020.03 667.187C1017.33 670.475 1014.55 673.682 1011.75 676.886C1006.85 682.502 1002.08 688.202 997.404 694.008C998.65 693.151 998.65 693.151 999.92 692.276C1006.67 687.675 1013.5 683.382 1020.67 679.453C1025.75 676.661 1030.62 673.611 1035.47 670.437C1036.35 669.969 1037.22 669.502 1038.13 669.02C1041.24 668.354 1041.24 668.354 1043.68 668.094C1046.38 671.341 1048.69 674.65 1050.85 678.275C1051.42 679.21 1051.99 680.145 1052.57 681.109C1053.21 682.455 1053.21 682.455 1053.86 683.827C1054.05 686.488 1054.05 686.488 1053.86 688.455C1043.63 694.583 1033.27 700.432 1022.83 706.184C1014.45 710.821 1006.17 715.622 997.961 720.566C997.102 721.076 996.243 721.586 995.358 722.112C994.611 722.562 993.863 723.011 993.094 723.475C990.926 724.549 990.926 724.549 988.335 725.164C987.663 725.266 986.991 725.369 986.298 725.474C985.783 724.892 985.268 724.31 984.737 723.71C983.25 722.043 981.754 720.384 980.25 718.732C978.93 717.278 977.623 715.812 976.353 714.314C974.016 711.718 971.602 709.52 968.706 707.551C962.118 703.311 955.419 699.256 948.354 695.859C949.27 695.401 949.27 695.401 950.204 694.933C950.429 693.87 950.653 692.807 950.884 691.712C952.505 684.152 954.264 676.74 956.625 669.37C959.922 658.887 962.646 648.226 965.209 637.542C966.436 632.505 967.857 627.617 969.64 622.745C970.25 622.135 970.861 621.524 971.491 620.895Z" fill="#87B02C"/>
<path d="M425.457 361.759C428.398 361.514 430.87 361.426 433.786 361.759C438.957 363.422 443.733 365.779 448.536 368.295C451.211 369.988 453.632 371.688 455.998 373.79C457.675 375.873 457.675 375.873 458.774 377.492C458.163 378.714 457.552 379.935 456.923 381.194C455.22 382.81 455.22 382.81 453.279 384.375C451.262 386.108 449.489 387.709 447.784 389.755C446.418 393.093 445.718 396.432 445.018 399.964C444.976 400.794 444.935 401.625 444.892 402.48C445.069 403.272 445.247 404.064 445.43 404.881C446.08 405.983 446.08 405.983 446.743 407.108C447.48 407.8 448.217 408.491 448.977 409.204C450.072 409.734 451.167 410.264 452.296 410.81C455.804 411.366 459.275 411.453 462.823 411.504C464.242 411.545 464.242 411.545 465.69 411.587C468.012 411.652 470.333 411.701 472.656 411.735C472.964 415.785 472.977 419.715 472.656 423.766C471.566 428.61 470.037 433.11 468.029 437.649C466.114 440.965 464.032 443.988 461.55 446.903C460.332 448.152 459.102 449.391 457.848 450.605C456.932 450.605 456.016 450.605 455.072 450.605C454.524 449.913 453.977 449.221 453.413 448.509C452.681 447.597 451.95 446.686 451.197 445.747C450.477 444.845 449.758 443.943 449.017 443.013C446.863 440.562 444.754 438.632 442.115 436.723C439.635 435.575 439.635 435.575 437.488 434.872C437.488 434.261 437.488 433.65 437.488 433.021C435.655 432.105 435.655 432.105 433.786 431.17C431.953 430.254 431.953 430.254 430.084 429.319C427.594 429.6 427.594 429.6 425.457 430.245C424.456 432.37 423.54 434.537 422.68 436.723C422.645 438.265 422.637 439.809 422.68 441.35C422.069 442.267 421.458 443.183 420.829 444.127C420.423 446.165 420.423 446.165 420.276 448.415C420.203 449.237 420.129 450.058 420.054 450.905C419.951 452.188 419.951 452.188 419.846 453.497C419.59 456.55 419.302 459.59 418.978 462.637C418.673 462.942 418.367 463.247 418.053 463.562C414.873 463.752 411.963 463.81 408.798 463.562C404.615 462.712 400.716 461.477 396.767 459.86C393.141 457.972 389.807 455.899 386.586 453.382C384.8 451.603 383.42 449.895 381.959 447.829C382.169 445.721 382.169 445.721 382.884 443.201C384.699 441.463 384.699 441.463 386.933 439.904C388.386 438.88 389.815 437.82 391.214 436.723C392.748 434.864 393.94 433.113 395.089 430.997C395.917 428.5 395.917 428.5 395.953 426.246C395.956 424.185 395.903 422.124 395.841 420.064C394.083 418.243 392.285 416.494 390.404 414.801C389.755 414.4 389.106 413.999 388.437 413.586C384.028 412.662 379.625 412.398 375.133 412.14C373.809 412.062 372.485 411.985 371.121 411.905C370.116 411.849 369.112 411.793 368.077 411.735C367.783 407.686 367.735 403.752 368.077 399.704C369.428 394.882 371.555 390.622 374.02 386.281C376.301 382.656 378.827 379.549 381.843 376.509C383.275 375.163 383.275 375.163 384.735 373.79C386.76 373.913 386.76 373.913 389.363 374.716C391.676 377.138 391.676 377.138 393.99 380.153C395.48 382.084 397.019 383.979 398.618 385.821C401.07 387.537 401.07 387.537 403.245 388.598C403.703 390.43 403.703 390.43 404.17 392.3C405.392 392.911 406.614 393.521 407.872 394.151C408.789 394.609 408.789 394.609 409.723 395.076C411.882 395.114 414.043 395.116 416.202 395.076C416.927 394.542 417.652 394.007 418.4 393.457C419.201 392.464 420.003 391.472 420.829 390.449C421.914 386.81 422.273 383.111 422.68 379.343C422.925 377.115 423.171 374.887 423.417 372.659C423.58 371.149 423.737 369.638 423.886 368.126C424.072 366.309 424.298 364.496 424.531 362.684C424.836 362.379 425.142 362.074 425.457 361.759Z" fill="#F25039"/>
<path d="M365.3 328.441C368.77 328.21 368.77 328.21 372.703 328.441C373.677 328.785 374.65 329.128 375.653 329.482C376.512 330.055 377.371 330.628 378.256 331.218C380.744 333.961 382.807 336.64 384.695 339.829C385.262 340.919 385.828 342.01 386.412 343.133C386.725 343.732 387.037 344.331 387.359 344.948C388.344 346.845 389.318 348.748 390.288 350.653C390.602 351.267 390.916 351.882 391.24 352.515C393.431 356.811 395.569 361.131 397.692 365.46C398.001 366.082 398.311 366.704 398.631 367.344C399.543 369.179 400.44 371.021 401.336 372.864C401.859 373.933 402.383 375.002 402.923 376.104C404.17 379.343 404.17 379.343 404.81 383.45C404.951 385.082 404.951 385.082 405.095 386.747C403.568 387.052 402.041 387.357 400.468 387.672C397.691 385.573 395.345 383.557 393.104 380.883C391.524 378.843 389.966 376.792 388.437 374.715C386.238 374.994 386.238 374.994 383.809 375.641C381.209 377.76 379.365 379.506 377.331 382.119C374.411 386.867 371.807 391.705 369.779 396.902C368.92 399.996 368.619 402.864 368.423 406.066C368.354 407.133 368.285 408.199 368.213 409.298C368.168 410.102 368.123 410.906 368.076 411.735C369.07 411.713 370.064 411.692 371.088 411.67C372.403 411.653 373.719 411.636 375.075 411.619C376.374 411.597 377.673 411.576 379.012 411.554C382.884 411.735 382.884 411.735 386.611 412.667C387.519 412.97 388.427 413.273 389.362 413.586C389.057 415.113 388.751 416.64 388.437 418.213C345.165 429.869 345.165 429.869 331.982 431.17C328.508 430.902 328.508 430.902 325.504 430.244C322.438 428.104 322.438 428.104 319.951 425.617C319.34 424.395 318.729 423.174 318.1 421.915C317.248 412.057 318.407 402.034 319.951 392.299C321.453 384.854 324.106 377.866 327.355 371.013C331.993 361.964 337.465 353.803 344.014 346.025C349.769 339.539 356.351 334.327 363.449 329.367C364.059 329.061 364.67 328.756 365.3 328.441Z" fill="#C01D18"/>
<path d="M391.212 429.318C392.129 429.624 393.045 429.929 393.989 430.244C393.815 432.268 393.815 432.268 393.063 434.871C390.016 438.354 386.467 441.209 382.883 444.126C383.078 446.269 383.078 446.269 383.809 448.754C384.248 449.498 384.687 450.242 385.139 451.009C387.249 453.119 389.127 454.606 391.617 456.215C396.103 458.772 400.676 460.464 405.586 462.021C409.772 462.822 413.805 462.76 418.051 462.636C418.22 460.68 418.22 460.68 418.391 458.684C418.548 456.974 418.704 455.264 418.861 453.554C418.934 452.695 419.007 451.835 419.082 450.95C419.198 449.71 419.198 449.71 419.317 448.446C419.385 447.685 419.452 446.924 419.522 446.14C419.648 445.476 419.773 444.811 419.902 444.126C420.513 443.21 421.124 442.294 421.753 441.35C422.975 441.655 424.197 441.96 425.455 442.275C429.16 451.154 431.034 460.374 432.975 469.75C433.457 472.049 433.942 474.347 434.427 476.644C434.865 478.721 435.298 480.798 435.73 482.876C436.304 485.518 436.908 488.128 437.572 490.746C438.232 493.385 438.708 495.627 438.759 498.325C438.587 500.358 438.587 500.358 438.412 502.432C437.935 503.596 437.458 504.76 436.966 505.96C436.222 506.933 435.477 507.907 434.71 508.91C431.471 511.108 431.471 511.108 428.232 512.612C424.297 513.596 420.949 513.726 416.895 513.769C410.012 513.759 403.461 513.156 396.707 511.723C386.833 509.117 377.416 505.184 368.357 500.49C359.923 495.635 352.624 489.299 345.535 482.675C342.441 479.572 339.949 476.471 337.534 472.816C337.076 471.442 337.076 471.442 336.609 470.04C336.463 468.02 336.317 466 336.215 463.977C336.345 463.229 336.475 462.481 336.609 461.71C338.088 458.912 338.088 458.912 340.311 456.157C343.073 454.144 343.073 454.144 346.558 452.166C347.208 451.796 347.858 451.425 348.527 451.044C351.021 449.64 353.53 448.269 356.044 446.903C357.799 445.948 357.799 445.948 359.59 444.974C363.549 442.827 367.517 440.698 371.488 438.573C372.145 438.221 372.802 437.868 373.479 437.505C375.381 436.487 377.286 435.476 379.192 434.466C380.303 433.876 381.415 433.285 382.56 432.677C385.434 431.279 388.121 430.122 391.212 429.318Z" fill="#BF1D18"/>
<path d="M507.541 389.33C509.055 389.426 509.055 389.426 510.601 389.524C514.071 391.085 514.071 391.085 517.079 393.226C518.814 395.539 518.814 395.539 519.856 397.853C520.816 401.695 520.927 404.955 520.957 408.885C520.95 417.421 520.898 425.596 518.93 433.947C518.782 434.775 518.634 435.603 518.482 436.456C517.243 442.566 515.004 448.097 512.394 453.729C508.573 461.679 504.147 468.728 498.57 475.594C494.406 480.586 490.093 485.384 485.136 489.61C483.172 491.036 481.353 492.199 479.134 493.178C478.027 493.35 476.92 493.521 475.779 493.698C472.656 493.178 472.656 493.178 469.359 492.31C468.309 491.68 467.259 491.05 466.178 490.401C461.165 484.242 457.595 476.802 453.799 469.867C449.121 461.288 449.121 461.288 444.226 452.833C443.568 451.735 442.909 450.637 442.231 449.507C441.68 448.615 441.128 447.724 440.56 446.806C440.157 445.922 439.754 445.038 439.339 444.127C438.695 440.089 438.695 440.089 438.413 436.723C440.246 436.265 440.246 436.265 442.115 435.798C446.904 439.797 451.215 443.837 455.072 448.755C455.072 449.365 455.072 449.976 455.072 450.606C457.23 449.657 457.23 449.657 459.699 447.829C462.733 444.454 465.049 440.785 467.277 436.839C469.248 432.61 470.765 428.336 471.73 423.767C472.193 419.749 472.441 415.777 472.656 411.735C465.937 411.735 459.218 411.735 452.295 411.735C451.99 410.514 451.685 409.292 451.37 408.033C453.813 406.26 456.099 404.796 458.774 403.406C463.135 401.738 467.559 400.303 472.014 398.911C474.078 398.265 476.137 397.606 478.196 396.944C500.835 389.71 500.835 389.71 507.541 389.33Z" fill="#BF1D18"/>
<path d="M422.467 312.495C424.319 312.515 424.319 312.515 426.209 312.535C428.05 312.544 428.05 312.544 429.929 312.553C435.526 312.779 440.853 313.198 446.255 314.679C456.201 317.69 465.52 321.293 474.507 326.591C482.164 331.707 488.813 337.792 495.367 344.215C497.645 346.951 497.645 346.951 499.315 350.357C500.421 353.43 500.421 353.43 500.884 356.148C500.731 357.084 500.578 358.019 500.421 358.983C498.744 362.569 498.744 362.569 497.457 364.47C495.524 366.698 493.482 368.339 491.108 370.088C489.286 371.337 487.455 372.571 485.613 373.79C484.784 374.358 483.955 374.926 483.101 375.511C477.267 379.471 471.319 383.255 465.368 387.036C464.245 387.753 464.245 387.753 463.1 388.483C459.283 390.895 455.507 393.243 451.37 395.076C448.71 395.25 448.71 395.25 446.743 395.076C446.526 393.03 446.526 393.03 446.743 390.449C448.232 388.273 448.232 388.273 450.213 386.169C450.858 385.47 451.502 384.77 452.166 384.05C453.97 382.292 455.795 380.796 457.849 379.343C457.238 378.122 456.627 376.9 455.998 375.641C453.974 373.231 453.974 373.231 451.37 371.014C446.768 368.008 441.798 365.827 436.801 363.567C433.955 362.611 433.955 362.611 431.576 362.556C429.536 362.555 427.496 362.615 425.457 362.685C425.345 363.855 425.233 365.025 425.117 366.231C424.961 367.767 424.804 369.304 424.647 370.84C424.538 371.997 424.538 371.997 424.426 373.178C424.211 375.24 423.913 377.293 423.606 379.343C422.995 380.259 422.384 381.176 421.755 382.12C420.228 381.814 418.701 381.509 417.127 381.194C414.529 371.422 412.422 361.67 410.774 351.696C410.416 349.544 410.041 347.395 409.666 345.247C408.428 337.977 407.588 330.849 407.546 323.469C407.654 322.666 407.762 321.864 407.873 321.038C408.912 318.936 408.912 318.936 410.302 317.162C411.333 316.303 412.364 315.444 413.426 314.559C416.559 313.22 419.053 312.704 422.467 312.495Z" fill="#C01E18"/>
<path d="M620.734 513.249C621.95 513.209 621.95 513.209 623.192 513.167C625.513 513.145 627.691 513.202 629.988 513.538C631.05 514.081 632.112 514.624 633.206 515.183C635.541 517.24 635.541 517.24 636.893 519.026C637.757 520.863 638.499 522.755 639.243 524.644C639.415 525.56 639.587 526.476 639.764 527.42C639.506 528.795 639.506 528.795 639.243 530.197C637.921 532.836 636.397 535.248 634.616 537.601C633.7 538.517 632.783 539.433 631.839 540.377C629.036 540.984 626.344 541.449 623.51 541.823C621.904 542.062 620.297 542.3 618.691 542.539C616.246 542.886 613.807 543.204 611.352 543.479C608.818 543.813 606.526 544.268 604.075 545.004C598.011 547.578 592.171 550.452 586.697 554.14C584.714 555.662 582.822 557.246 580.938 558.887C579.869 559.707 578.8 560.528 577.699 561.374C573.95 564.653 571.037 568.546 568.115 572.559C564.71 577.683 561.929 583.075 559.753 588.831C559.416 589.785 559.416 589.785 559.073 590.758C557.801 594.055 557.801 594.055 556.008 596.716C555.378 597.365 554.748 598.014 554.099 598.683C552.266 599.599 552.266 599.599 550.397 600.533C547.825 600.985 545.451 601.053 542.841 601.014C541.975 600.856 541.109 600.697 540.216 600.533C537.882 599.181 536.112 597.693 534.165 595.834C533.495 594.953 533.495 594.953 532.813 594.055C531.887 590.353 531.887 590.353 531.54 586.651C531.576 584.435 531.576 584.435 531.887 582.024C534.136 574.596 538.008 567.735 541.934 561.078C547.595 552.188 554.906 544.526 562.464 537.221C567.837 532.219 573.639 528.288 580.012 524.644C588.315 520.246 596.801 516.748 605.926 514.464C610.855 513.419 615.714 513.304 620.734 513.249Z" fill="#FAF6EF"/>
<path d="M530.556 898.25C533.53 898.293 536.261 898.488 539.178 899.074C541.874 899.918 544.212 900.888 546.694 902.241C550.121 904.733 553.094 907.442 555.949 910.57C558.369 913.701 560.117 916.989 561.791 920.577C562.562 924.152 562.682 927.469 562.594 931.119C562.399 934.155 562.088 937.003 561.328 939.951C560.138 943.253 558.546 946.159 556.65 949.108C555.069 951.231 553.473 953.059 551.553 954.878C549.505 956.548 547.592 957.784 545.219 958.956C541.725 960.395 538.333 961.48 534.663 962.398C531.232 962.732 527.914 962.721 524.482 962.398C521.164 961.545 518.246 960.308 515.228 958.696C512.48 957.084 510.11 955.365 507.824 953.143C504.963 949.588 502.806 945.88 500.763 941.809C499.494 938.335 499.494 938.335 498.996 934.481C498.912 930.159 498.835 925.956 499.494 921.676C500.686 918.149 502.096 915.303 504.071 912.154C505.795 909.879 507.494 907.851 509.559 905.885C512.148 903.856 514.791 902.352 517.773 900.969C521.999 899.22 525.985 898.366 530.556 898.25Z" fill="#FC790F"/>
<path d="M282.931 591.278C283.847 591.584 284.763 591.889 285.707 592.204C287.239 594.532 288.629 596.835 289.988 599.261C290.826 600.724 291.664 602.187 292.504 603.649C292.921 604.382 293.339 605.114 293.769 605.868C295.387 608.673 297.084 611.426 298.78 614.184C302.73 620.749 306.47 627.43 310.185 634.131C310.871 635.369 311.558 636.606 312.247 637.842C313.22 639.59 314.186 641.342 315.153 643.095C315.72 644.121 316.288 645.147 316.872 646.205C317.277 647.014 317.682 647.824 318.099 648.658C318.099 649.269 318.099 649.88 318.099 650.509C318.71 650.509 319.321 650.509 319.95 650.509C320.027 649.898 320.103 649.288 320.182 648.658C320.876 645.882 320.876 645.882 322.531 642.682C324.991 637.847 326.692 632.803 328.395 627.661C328.722 626.683 329.048 625.704 329.384 624.695C331.588 617.908 333.275 611.374 333.832 604.235C334.749 603.93 335.665 603.624 336.609 603.31C337.042 611.807 336.607 619.777 335.047 628.124C334.008 633.401 332.841 638.365 330.593 643.279C329.83 644.768 329.059 646.252 328.28 647.733C327.522 649.399 326.789 651.077 326.082 652.765C325.769 653.489 325.456 654.213 325.134 654.96C324.951 655.629 324.767 656.298 324.578 656.988C325.329 660.532 325.329 660.532 326.621 662.996C327.322 664.284 327.322 664.284 328.037 665.599C328.563 666.569 329.088 667.54 329.629 668.54C330.196 669.576 330.762 670.612 331.345 671.68C331.921 672.742 332.497 673.804 333.09 674.899C335.972 680.211 338.874 685.511 341.789 690.804C342.301 691.736 342.813 692.668 343.341 693.628C344.315 695.397 345.292 697.165 346.273 698.93C346.708 699.72 347.144 700.51 347.592 701.324C347.975 702.014 348.357 702.704 348.752 703.415C349.02 703.976 349.289 704.536 349.566 705.113C349.566 705.724 349.566 706.334 349.566 706.964C350.176 706.964 350.787 706.964 351.417 706.964C351.5 706.339 351.584 705.713 351.67 705.069C352.524 701.598 354.037 698.793 355.697 695.627C362.079 683.166 366.929 670.419 370.852 656.988C371.463 656.988 372.073 656.988 372.703 656.988C373.072 662.022 373.176 667.016 372.368 672.015C370.313 682.02 366.793 691.339 362.468 700.565C361.023 703.478 359.509 706.261 357.837 709.046C357.245 710.191 356.654 711.337 356.044 712.517C356.104 715.249 356.104 715.249 356.97 718.07C358.428 720.729 358.428 720.729 360.209 723.333C361.984 726.236 361.984 726.236 363.448 729.175C363.99 731.898 364.197 734.387 364.218 737.158C364.269 737.883 364.321 738.608 364.373 739.356C364.984 740.577 365.595 741.799 366.224 743.058C366.405 745.444 366.405 745.444 366.34 747.916C366.323 748.742 366.307 749.568 366.289 750.418C366.268 751.043 366.247 751.668 366.224 752.312C365.308 752.007 364.392 751.702 363.448 751.387C361.423 748.206 361.423 748.206 359.746 744.909C359.746 744.298 359.746 743.687 359.746 743.058C358.83 743.058 357.914 743.058 356.97 743.058C346.417 724.247 346.417 724.247 343.087 717.144C343.087 716.533 343.087 715.922 343.087 715.293C341.226 715.15 341.226 715.15 339.328 715.004C328.417 713.896 317.326 711.58 306.993 707.889C298.969 704.342 291.342 700.162 283.893 695.525C283.27 695.024 282.647 694.523 282.005 694.007C281.395 692.785 280.784 691.564 280.154 690.305C282.161 690.616 282.161 690.616 284.782 691.231C286.438 692.005 288.075 692.82 289.698 693.66C302.074 699.49 315.729 702.732 329.089 705.46C330.514 705.738 331.938 706.015 333.362 706.291C334.434 706.513 335.505 706.735 336.609 706.964C337.22 707.269 337.831 707.575 338.46 707.889C326.43 682.667 326.43 682.667 313.472 657.913C311.861 657.476 311.861 657.476 310.218 657.031C287.506 650.832 287.506 650.832 277.298 645.567C273.108 643.18 269.206 640.439 265.347 637.552C265.347 636.636 265.347 635.72 265.347 634.776C268.23 635.497 270.661 636.296 273.383 637.419C285.348 642.273 297.284 646.298 309.77 649.584C309.274 648.701 308.777 647.818 308.266 646.909C302.51 636.425 297.548 625.632 292.706 614.705C292.38 613.971 292.054 613.236 291.719 612.48C288.613 605.473 285.572 598.475 282.931 591.278Z" fill="#A7C741"/>
<path d="M753.076 296.975C758.05 300.665 762.918 304.447 767.71 308.37C768.356 308.897 769.002 309.424 769.668 309.968C770.956 311.02 772.245 312.073 773.533 313.126C775.025 314.344 776.522 315.557 778.021 316.768C788.717 325.43 799.029 334.504 809.057 343.928C809.824 344.62 810.591 345.312 811.382 346.025C811.992 346.331 812.603 346.636 813.233 346.951C813.233 347.562 813.233 348.172 813.233 348.802C813.843 348.802 814.454 348.802 815.084 348.802C815.084 349.413 815.084 350.023 815.084 350.653C815.694 350.653 816.305 350.653 816.935 350.653C817.217 336.22 817.398 322.136 814.765 307.903C814.278 305.072 814.022 302.605 814.158 299.751C814.769 299.751 815.38 299.751 816.009 299.751C819.445 307.928 821.998 315.971 823.413 324.739C824.38 331.878 824.451 338.946 824.396 346.141C824.392 347.203 824.388 348.264 824.384 349.358C824.373 351.949 824.358 354.54 824.338 357.131C829.404 362.28 834.462 367.375 839.945 372.08C847.516 378.626 854.696 385.529 861.698 392.674C863.963 394.973 866.067 396.982 868.762 398.778C868.762 399.389 868.762 399.999 868.762 400.629C869.372 400.629 869.983 400.629 870.613 400.629C870.602 400.047 870.591 399.464 870.58 398.865C870.572 398.072 870.563 397.28 870.555 396.464C870.544 395.691 870.533 394.918 870.522 394.121C870.613 391.374 870.613 391.374 871.063 388.064C871.573 383.673 871.745 379.362 871.831 374.947C871.86 373.699 871.86 373.699 871.889 372.426C871.949 369.796 872.004 367.165 872.059 364.535C872.099 362.741 872.139 360.946 872.18 359.152C872.278 354.776 872.372 350.401 872.464 346.025C873.074 346.331 873.685 346.636 874.315 346.951C874.766 348.761 875.207 350.574 875.645 352.388C875.892 353.397 876.139 354.407 876.393 355.446C877.848 362.816 878.151 370.149 878.107 377.644C878.105 378.918 878.105 378.918 878.103 380.218C878.098 382.896 878.086 385.573 878.074 388.25C878.07 390.081 878.065 391.911 878.062 393.742C878.052 398.197 878.034 402.652 878.016 407.107C885.957 415.048 893.898 422.988 902.079 431.17C902.079 431.475 902.079 431.781 902.079 432.095C898.986 432.477 896.097 432.475 892.983 432.29C891.709 431.921 890.435 431.551 889.122 431.17C883.502 427.372 878.906 422.236 874.315 417.287C873.704 416.677 873.093 416.066 872.464 415.437C866.616 415.272 861.136 415.545 855.342 416.362C840.759 418.203 825.748 417.779 811.103 416.745C808.277 416.312 805.736 415.486 803.052 414.511C803.052 413.9 803.052 413.289 803.052 412.66C804.146 412.625 805.24 412.591 806.367 412.555C817.727 412.141 829.038 411.329 840.361 410.346C841.064 410.286 841.767 410.225 842.491 410.162C849.716 409.534 856.932 408.879 864.134 408.033C858.945 401.905 853.374 396.205 847.689 390.541C846.148 389.005 844.613 387.465 843.078 385.924C837.915 380.758 832.698 375.724 827.115 371.013C824.647 368.854 822.179 366.694 819.711 364.535C819.711 363.924 819.711 363.313 819.711 362.684C818.462 362.884 818.462 362.884 817.188 363.089C806.337 364.654 795.493 365.331 784.543 364.535C778.312 363.782 772.033 362.702 766.033 360.833C763.199 359.694 760.467 358.44 757.704 357.131C757.704 356.215 757.704 355.299 757.704 354.355C758.827 354.555 759.951 354.755 761.109 354.962C770.696 356.56 780.08 357.409 789.806 357.42C791.296 357.427 791.296 357.427 792.815 357.435C798.932 357.381 804.496 356.661 810.456 355.28C809.071 353.869 807.682 352.463 806.291 351.058C805.518 350.274 804.745 349.49 803.949 348.682C801.908 346.709 799.861 344.847 797.713 342.999C793.369 339.234 789.336 335.187 785.295 331.102C784.572 330.375 783.85 329.649 783.106 328.9C781.761 327.548 780.418 326.195 779.076 324.84C776.893 322.641 774.703 320.45 772.511 318.261C766.033 311.782 759.555 305.304 753.076 298.826C753.076 298.215 753.076 297.604 753.076 296.975Z" fill="#9EC139"/>
<path d="M971.491 620.895C976.45 621.467 980.965 622.622 985.72 624.134C987.025 624.544 988.33 624.955 989.675 625.377C990.699 625.73 991.722 626.084 992.777 626.447C993.235 626.906 993.235 626.906 993.702 627.373C993.175 632.904 991.989 637.789 990.232 643.048C989.728 644.599 989.225 646.15 988.724 647.701C988.472 648.478 988.22 649.254 987.961 650.054C985.457 657.891 983.184 665.807 981.092 673.763C980.347 676.558 979.528 678.952 978.374 681.629C977.124 684.564 976.388 687.354 975.753 690.472C974.995 694.005 974.109 697.504 973.226 701.007C972.899 702.306 972.572 703.605 972.235 704.944C971.99 705.916 971.744 706.888 971.491 707.89C970.269 707.585 969.047 707.279 967.789 706.964C965.477 705.654 963.218 704.318 960.963 702.916C956.844 700.372 952.724 697.956 948.354 695.859C949.27 695.401 949.27 695.401 950.204 694.933C950.429 693.87 950.653 692.807 950.884 691.712C952.505 684.152 954.264 676.74 956.625 669.37C959.922 658.887 962.646 648.226 965.209 637.542C966.436 632.505 967.857 627.617 969.64 622.745C970.25 622.135 970.861 621.524 971.491 620.895Z" fill="#5E8D1F"/>
<path d="M1039.98 668.094C1042.59 668.394 1042.59 668.394 1044.6 669.019C1045.7 670.778 1046.8 672.538 1047.89 674.301C1048.76 675.681 1049.66 677.049 1050.57 678.401C1051.74 680.161 1052.81 681.992 1053.86 683.827C1053.99 686.361 1053.99 686.361 1053.86 688.454C1043.64 694.583 1033.27 700.431 1022.83 706.184C1014.45 710.821 1006.17 715.621 997.961 720.565C997.102 721.076 996.243 721.586 995.358 722.112C994.237 722.786 994.237 722.786 993.094 723.474C990.926 724.548 990.926 724.548 988.335 725.163C987.663 725.266 986.991 725.368 986.299 725.474C984.919 724.038 983.553 722.589 982.192 721.136C981.43 720.33 980.667 719.525 979.882 718.695C979.251 717.878 978.62 717.061 977.969 716.219C977.243 713.598 977.243 713.598 977.044 711.591C977.655 710.981 978.266 710.37 978.895 709.741C979.561 707.596 980.182 705.436 980.746 703.262C985.39 700.421 990.049 697.658 994.86 695.106C999.956 692.358 1004.76 689.234 1009.61 686.076C1014.68 682.812 1019.89 679.795 1025.1 676.774C1027.49 675.391 1029.83 673.973 1032.18 672.515C1033.15 671.915 1034.12 671.315 1035.12 670.697C1035.95 670.168 1036.79 669.64 1037.65 669.095C1038.8 668.599 1038.8 668.599 1039.98 668.094Z" fill="#5E8D1E"/>
<path d="M890.049 430.244C894.447 430.201 898.674 430.364 903.005 431.169C904.016 431.801 904.016 431.801 905.048 432.445C906.636 434.108 908.048 435.853 909.484 437.647C910.676 438.733 911.892 439.793 913.128 440.829C916.438 443.67 919.477 446.705 922.48 449.867C924.238 451.605 924.238 451.605 926.436 452.753C929.156 454.455 931.175 456.34 933.437 458.614C934.308 459.485 935.178 460.356 936.075 461.253C937.466 462.658 937.466 462.658 938.886 464.092C939.845 465.054 940.804 466.015 941.792 467.006C944.332 469.554 946.867 472.107 949.4 474.661C951.99 477.27 954.586 479.873 957.18 482.477C962.264 487.581 967.342 492.691 972.417 497.804C972.417 499.636 972.417 501.469 972.417 503.357C970.508 505.613 970.508 505.613 967.789 507.984C964.38 508.595 964.38 508.595 961.311 508.91C955.199 502.841 949.093 496.767 942.992 490.687C940.16 487.864 937.325 485.042 934.486 482.225C931.746 479.505 929.01 476.78 926.277 474.052C925.235 473.013 924.191 471.976 923.146 470.94C921.679 469.487 920.219 468.028 918.759 466.568C917.927 465.74 917.094 464.912 916.237 464.058C914.223 461.834 912.815 459.678 911.335 457.083C909.77 455.296 908.166 453.543 906.534 451.819C902.012 446.963 897.84 441.94 893.75 436.722C892.222 434.858 890.675 433.013 889.123 431.169C889.428 430.864 889.734 430.558 890.049 430.244Z" fill="#7AA626"/>
<path d="M363.448 731.026C366.147 734.274 368.436 737.595 370.621 741.207C371.573 742.773 371.573 742.773 372.544 744.37C373.207 745.464 373.871 746.558 374.554 747.685C375.941 749.942 377.329 752.198 378.719 754.453C379.799 756.207 380.878 757.962 381.958 759.716C382.569 759.411 383.18 759.106 383.809 758.791C384.055 759.599 384.302 760.408 384.556 761.241C385.631 764.262 386.912 766.796 388.52 769.564C389.089 770.547 389.658 771.53 390.244 772.543C390.85 773.579 391.456 774.614 392.081 775.681C392.698 776.749 393.315 777.817 393.952 778.918C396.789 783.804 399.661 788.651 402.724 793.399C403.196 794.138 403.669 794.876 404.155 795.638C405.022 796.98 405.905 798.312 406.807 799.631C407.984 801.453 407.984 801.453 409.723 805.065C410.044 807.946 409.93 810.483 409.723 813.394C408.161 815.13 408.161 815.13 406.021 817.096C405.295 817.497 404.57 817.898 403.823 818.311C403.021 818.521 402.219 818.731 401.393 818.947C400.458 818.909 399.523 818.871 398.559 818.832C397.662 818.564 396.765 818.297 395.84 818.022C394.028 816.505 394.028 816.505 392.138 814.32C390.958 812.308 389.851 810.252 388.798 808.17C388.175 806.951 387.552 805.731 386.911 804.474C386.262 803.187 385.614 801.899 384.966 800.611C383.701 798.117 382.431 795.624 381.163 793.131C380.848 792.512 380.534 791.893 380.21 791.254C377.397 785.723 374.482 780.249 371.55 774.779C366.186 764.765 361.415 754.812 357.896 743.983C358.506 743.678 359.117 743.372 359.746 743.058C360.059 743.648 360.372 744.239 360.694 744.847C361.313 745.994 361.313 745.994 361.944 747.164C362.557 748.308 362.557 748.308 363.181 749.475C363.575 750.106 363.968 750.737 364.374 751.387C364.985 751.692 365.596 751.998 366.225 752.312C365.94 750.326 365.65 748.34 365.357 746.355C365.196 745.249 365.035 744.143 364.869 743.003C364.706 742.105 364.542 741.207 364.374 740.281C364.068 739.976 363.763 739.67 363.448 739.356C363.448 736.607 363.448 733.858 363.448 731.026Z" fill="#76A127"/>
<path d="M846.551 749.536C848.492 750.147 848.492 750.147 851.178 751.387C853.233 753.022 855.186 754.669 857.136 756.419C861.553 760.298 866.027 764.036 870.671 767.641C876.977 772.54 883.066 777.652 889.123 782.854C888.818 784.381 888.512 785.908 888.198 787.481C886.365 787.939 886.365 787.939 884.496 788.406C883.96 788.071 883.425 787.736 882.873 787.39C870.315 779.473 870.315 779.473 857.386 772.189C851.814 769.15 846.422 765.787 840.998 762.493C841.313 759.97 841.313 759.97 841.924 756.94C843.269 754.302 844.892 752.003 846.551 749.536Z" fill="#D85104"/>
<path d="M943.727 784.704C945.801 785.004 945.801 785.004 948.355 785.63C950.289 786.777 950.289 786.777 952.198 788.229C952.91 788.763 953.623 789.298 954.357 789.849C955.106 790.422 955.855 790.996 956.626 791.587C958.199 792.772 959.773 793.955 961.348 795.137C962.123 795.723 962.899 796.308 963.698 796.912C967.785 799.966 971.963 802.887 976.137 805.82C979.011 807.926 981.735 810.161 984.449 812.469C982.598 816.171 982.598 816.171 981 818.152C980.42 818.796 979.84 819.44 979.243 820.104C978.658 820.758 978.074 821.411 977.471 822.085C977.025 822.576 976.579 823.068 976.119 823.574C965.013 812.469 953.908 801.363 942.802 790.257C942.802 788.73 942.802 787.203 942.802 785.63C943.107 785.324 943.413 785.019 943.727 784.704Z" fill="#D85103"/>
<path d="M884.495 839.308C886.484 839.987 886.484 839.987 889.123 841.159C890.896 842.417 892.628 843.737 894.328 845.092C899.585 849.214 904.91 853.225 910.293 857.181C911.398 857.995 911.398 857.995 912.526 858.825C916.733 861.916 920.961 864.974 925.216 867.998C921.991 871.318 918.626 874.33 915.036 877.252C910.861 873.76 907.064 870.237 903.468 866.147C900.471 862.746 897.392 859.749 893.931 856.834C889.656 853.061 885.716 848.924 881.719 844.861C882.024 843.333 882.33 841.806 882.644 840.233C883.255 839.928 883.866 839.622 884.495 839.308Z" fill="#D95203"/>
<path d="M799.351 831.904C805.614 836.288 811.059 841.371 816.617 846.593C821.8 851.46 827.186 856.071 832.669 860.594C832.363 862.121 832.058 863.648 831.743 865.222C829.911 865.68 829.911 865.68 828.041 866.147C816.281 859.113 804.554 852.027 792.873 844.861C793.159 842.826 793.159 842.826 793.799 840.234C795.104 837.96 795.104 837.96 796.633 835.78C797.393 834.683 797.393 834.683 798.169 833.564C798.754 832.742 798.754 832.742 799.351 831.904Z" fill="#D95103"/>
<path d="M808.606 906.868C810.569 907.063 810.569 907.063 813.233 907.794C815.869 909.623 815.869 909.623 818.844 912.074C819.976 912.995 821.11 913.913 822.246 914.829C822.866 915.329 823.486 915.829 824.124 916.344C828.86 920.081 833.748 923.624 838.612 927.191C839.757 928.04 839.757 928.04 840.925 928.906C841.609 929.408 842.292 929.911 842.996 930.428C843.558 930.899 844.12 931.371 844.7 931.856C845.311 932.772 845.921 933.689 846.551 934.633C845.07 935.852 843.584 937.066 842.097 938.277C841.27 938.953 840.443 939.63 839.591 940.327C838.834 940.891 838.076 941.455 837.296 942.037C835.921 942.495 835.921 942.495 834.519 942.962C833.775 941.912 833.031 940.862 832.264 939.781C829.384 935.929 826.136 932.637 822.698 929.286C820.262 926.854 818.039 924.284 815.8 921.672C812.932 918.444 809.843 915.437 806.755 912.421C807.033 910.873 807.343 909.33 807.68 907.794C807.986 907.488 808.291 907.183 808.606 906.868Z" fill="#D54F02"/>
<path d="M430.083 332.144C432.221 332.144 434.359 332.144 436.561 332.144C437.783 333.365 439.004 334.587 440.263 335.845C440.119 338.447 439.911 340.72 439.338 343.249C437.974 346.437 436.393 349.474 434.71 352.504C433.489 352.81 432.267 353.115 431.008 353.43C429.502 350.024 428.212 346.87 427.306 343.249C427.075 339.547 427.075 339.547 427.306 335.845C427.764 335.082 428.223 334.318 428.695 333.532C429.153 333.074 429.611 332.616 430.083 332.144Z" fill="#FAA034"/>
<path d="M363.449 351.578C365.281 351.578 367.114 351.578 369.002 351.578C370.616 353.367 372.145 355.233 373.629 357.131C375.307 360.37 375.307 360.37 376.406 363.609C376.579 366.791 376.579 366.791 376.406 369.162C374.879 369.468 373.352 369.773 371.778 370.088C370.116 368.918 368.459 367.74 366.804 366.559C365.88 365.904 364.957 365.249 364.006 364.575C362.814 363.639 362.814 363.639 361.598 362.684C360.987 361.768 360.376 360.851 359.747 359.907C359.631 357.42 359.631 357.42 359.747 355.28C360.969 354.058 362.19 352.837 363.449 351.578Z" fill="#FAA539"/>
<path d="M409.722 473.741C411.249 474.047 412.777 474.352 414.35 474.667C416.999 483.246 416.999 483.246 417.311 487.172C417.302 488.866 417.222 490.559 417.126 492.251C415.905 493.167 414.683 494.083 413.424 495.027C411.256 494.786 409.096 494.472 406.946 494.102C406.335 493.491 405.724 492.88 405.095 492.251C404.921 489.59 404.921 489.59 405.095 485.772C405.824 482.616 406.718 479.545 407.871 476.518C408.482 475.601 409.093 474.685 409.722 473.741Z" fill="#FAA538"/>
<path d="M340.312 399.703C342.719 399.53 342.719 399.53 345.865 399.703C348.836 400.918 348.836 400.918 351.764 402.48C352.745 402.995 353.726 403.511 354.736 404.042C355.473 404.442 356.211 404.843 356.97 405.256C357.276 406.478 357.581 407.7 357.896 408.958C354.997 410.265 352.174 411.527 349.104 412.371C346.16 412.739 343.275 412.718 340.312 412.66C339.395 411.744 338.479 410.828 337.535 409.884C337.535 407.44 337.535 404.997 337.535 402.48C338.451 401.564 339.368 400.647 340.312 399.703Z" fill="#FAA138"/>
<path d="M467.103 453.382C469.822 453.498 469.822 453.498 473.582 454.307C476.513 455.954 479.229 457.835 481.911 459.86C482.216 460.166 482.522 460.471 482.836 460.786C482.836 462.924 482.836 465.061 482.836 467.264C481.615 468.486 480.393 469.707 479.135 470.966C477.607 470.966 476.08 470.966 474.507 470.966C471.87 468.036 469.56 465.115 467.682 461.653C467.185 460.451 466.689 459.248 466.178 458.009C466.254 457.093 466.33 456.177 466.409 455.233C466.638 454.622 466.867 454.011 467.103 453.382Z" fill="#FBA63A"/>
<path d="M500.42 409.883C501.336 410.8 502.253 411.716 503.197 412.66C503.197 414.492 503.197 416.325 503.197 418.213C501.975 419.434 500.753 420.656 499.495 421.915C496.954 422.051 494.616 422.124 492.091 421.915C489.446 421.21 487.205 420.267 484.687 419.138C484.076 418.527 483.465 417.917 482.836 417.287C483.141 416.066 483.447 414.844 483.761 413.585C485.786 412.255 485.786 412.255 488.389 410.809C492.362 409.627 496.3 409.814 500.42 409.883Z" fill="#FAA033"/>
<path d="M346.79 373.79C347.907 373.589 347.907 373.589 349.046 373.385C350.134 373.518 351.222 373.652 352.343 373.79C355.376 375.662 358.073 377.832 360.672 380.268C361.63 381.477 362.567 382.705 363.449 383.97C363.143 385.192 362.838 386.413 362.523 387.672C359.42 387.844 356.371 387.888 353.269 387.672C350.574 386.994 348.408 386.077 345.865 384.895C345.254 384.285 344.643 383.674 344.014 383.044C344.014 380.907 344.014 378.769 344.014 376.566C344.93 375.65 345.846 374.734 346.79 373.79Z" fill="#FAA134"/>
<path d="M388.438 468.189C389.965 468.495 391.492 468.8 393.065 469.115C392.881 471.966 392.649 474.64 392.139 477.444C391.091 480.616 389.874 483.683 388.438 486.699C388.132 487.005 387.827 487.31 387.512 487.625C385.374 487.625 383.236 487.625 381.034 487.625C380.117 486.708 379.201 485.792 378.257 484.848C378.037 482.375 378.037 482.375 378.257 479.295C379.779 476.794 379.779 476.794 381.786 474.436C382.441 473.649 383.096 472.862 383.77 472.05C385.661 470.04 385.661 470.04 388.438 468.189Z" fill="#FAA53B"/>
<path d="M479.134 434.871C482.558 434.641 485.893 434.573 489.314 434.871C492.318 435.849 494.83 437.097 497.643 438.573C497.949 440.405 498.254 442.238 498.569 444.126C497.347 445.653 496.126 447.18 494.867 448.753C493.989 448.772 493.111 448.791 492.206 448.811C490.946 448.487 489.687 448.162 488.389 447.828C485.075 445.279 482.094 442.446 479.134 439.498C479.134 437.971 479.134 436.444 479.134 434.871Z" fill="#FAA236"/>
<path d="M370.853 457.083C373.976 456.91 373.976 456.91 376.406 457.083C376.52 457.828 376.635 458.572 376.753 459.339C376.638 460.427 376.524 461.515 376.406 462.636C374.813 465.609 372.93 468.311 370.853 470.966C369.936 471.882 369.02 472.798 368.076 473.742C365.938 473.437 363.801 473.131 361.598 472.816C360.987 471.9 360.376 470.984 359.747 470.04C359.631 467.09 359.631 467.09 359.747 464.487C362.418 462.134 365.026 460.025 368.076 458.182C369.451 457.638 369.451 457.638 370.853 457.083Z" fill="#FBA338"/>
<path d="M469.879 351.578C471.711 351.578 473.544 351.578 475.432 351.578C476.348 352.494 477.264 353.411 478.208 354.355C478.44 356.842 478.44 356.842 478.208 359.907C477.75 360.709 477.292 361.511 476.82 362.337C474.506 364.535 474.506 364.535 472.775 365.645C470.862 366.675 470.862 366.675 467.102 368.237C464.326 368.468 464.326 368.468 462.475 368.237C462.303 367.149 462.303 367.149 462.128 366.039C462.242 364.932 462.357 363.825 462.475 362.684C464.084 359.436 465.962 356.405 468.028 353.429C468.639 352.818 469.25 352.207 469.879 351.578Z" fill="#FAA73A"/>
<path d="M455.996 339.547C457.829 339.547 459.661 339.547 461.549 339.547C462.16 340.158 462.771 340.769 463.4 341.398C463.104 343.448 463.104 343.448 462.475 346.025C461.267 348.169 461.267 348.169 459.814 350.248C459.339 350.936 458.864 351.625 458.375 352.334C456.989 354.261 455.578 356.165 454.145 358.057C452.924 357.751 451.702 357.446 450.443 357.131C450.821 352.976 451.422 349.194 452.699 345.215C453.176 343.956 453.654 342.696 454.145 341.398C454.756 340.787 455.367 340.176 455.996 339.547Z" fill="#F99E38"/>
<path d="M498.57 511.687C499.18 511.687 499.791 511.687 500.421 511.687C499.81 512.908 499.199 514.13 498.57 515.388C493.255 520.205 487.176 524.052 480.928 527.535C475.554 530.297 470.094 532.633 464.442 534.766C463.37 535.175 463.37 535.175 462.277 535.592C458.616 536.913 455.18 537.805 451.305 538.24C449.505 538.381 449.505 538.381 447.668 538.526C447.668 537.915 447.668 537.304 447.668 536.675C451.37 535.749 451.37 535.749 454.84 535.691C455.833 535.71 456.826 535.729 457.848 535.749C457.848 535.138 457.848 534.527 457.848 533.898C458.596 533.663 459.344 533.428 460.115 533.186C461.104 532.867 462.093 532.549 463.112 532.221C464.578 531.754 464.578 531.754 466.073 531.277C468.831 530.242 471.101 528.991 473.582 527.42C476.011 526.321 476.011 526.321 478.209 525.569C479.125 525.569 480.041 525.569 480.985 525.569C480.985 524.958 480.985 524.347 480.985 523.718C482.207 523.718 483.429 523.718 484.687 523.718C484.993 522.802 485.298 521.885 485.613 520.941C486.834 520.636 488.056 520.331 489.315 520.016C489.62 519.405 489.926 518.794 490.24 518.165C491.156 517.859 492.073 517.554 493.017 517.239C493.627 516.323 494.238 515.407 494.868 514.463C495.784 514.158 496.7 513.852 497.644 513.537C497.949 512.927 498.255 512.316 498.57 511.687Z" fill="#D2271F"/>
<path d="M545.768 404.331C546.379 404.331 546.99 404.331 547.619 404.331C547.981 427.263 547.981 427.263 546.173 436C545.973 436.816 545.973 436.816 545.768 437.648C545.463 437.648 545.158 437.648 544.843 437.648C544.843 435.511 544.843 433.373 544.843 431.17C543.927 431.17 543.01 431.17 542.066 431.17C543.149 422.197 544.332 413.255 545.768 404.331Z" fill="#DE4135"/>
<path d="M535.588 460.785C536.199 460.785 536.81 460.785 537.439 460.785C537.237 463.034 537.237 463.034 536.514 466.338C535.293 469.244 533.838 472.007 532.349 474.783C531.938 475.557 531.527 476.33 531.104 477.127C527.621 483.536 523.788 489.554 518.93 495.028C518.014 495.639 517.097 496.25 516.153 496.879C516.905 494.218 516.905 494.218 518.004 491.326C518.921 490.715 519.837 490.104 520.781 489.475C521.086 488.559 521.392 487.643 521.706 486.699C522.317 486.699 522.928 486.699 523.557 486.699C523.557 485.782 523.557 484.866 523.557 483.922C524.168 483.922 524.779 483.922 525.408 483.922C525.408 483.006 525.408 482.09 525.408 481.146C526.019 481.146 526.63 481.146 527.259 481.146C527.565 479.619 527.87 478.092 528.185 476.518C528.795 476.518 529.406 476.518 530.036 476.518C530.646 474.075 531.257 471.632 531.887 469.115C532.497 469.115 533.108 469.115 533.738 469.115C533.871 468.256 534.005 467.397 534.142 466.512C534.663 463.562 534.663 463.562 535.588 460.785Z" fill="#D22A22"/>
<path d="M282.931 591.278C283.847 591.584 284.763 591.889 285.707 592.204C287.427 594.703 288.985 597.167 290.508 599.781C290.937 600.481 291.366 601.181 291.808 601.901C292.977 603.886 294.051 605.821 294.962 607.937C295.211 611.057 295.211 611.057 294.962 613.49C295.231 615.04 295.527 616.586 295.887 618.117C294.971 617.201 294.055 616.285 293.111 615.341C292.216 613.605 291.391 611.833 290.613 610.041C290.163 609.01 289.712 607.98 289.248 606.918C288.786 605.841 288.324 604.765 287.847 603.657C287.374 602.573 286.901 601.49 286.414 600.374C283.936 594.672 283.936 594.672 282.931 592.204C282.931 591.898 282.931 591.593 282.931 591.278Z" fill="#B6D150"/>
<path d="M442.114 537.599C444.717 537.484 444.717 537.484 446.742 537.599C446.436 538.516 446.131 539.432 445.816 540.376C438.689 542.235 431.8 543.217 424.451 543.369C406.331 543.492 406.331 543.492 399.542 542.227C399.542 541.921 399.542 541.616 399.542 541.301C400.264 541.311 400.986 541.321 401.73 541.331C405.069 541.37 408.408 541.393 411.747 541.417C413.45 541.44 413.45 541.44 415.187 541.464C422.748 541.504 430.087 541.104 437.487 539.45C439.032 538.841 440.575 538.225 442.114 537.599Z" fill="#D94C45"/>
<path d="M978.895 703.262C979.506 703.567 980.116 703.873 980.746 704.187C980.201 706.366 979.573 708.525 978.895 710.666C977.391 712.921 977.391 712.921 976.118 714.368C974.286 712.23 972.453 710.092 970.565 707.889C971.176 706.667 971.787 705.446 972.416 704.187C972.416 704.798 972.416 705.409 972.416 706.038C974.554 705.122 976.692 704.206 978.895 703.262Z" fill="#7AA323"/>
<path d="M943.727 545.004C944.643 545.004 945.559 545.004 946.503 545.004C946.503 552.639 946.503 560.274 946.503 568.141C945.587 568.141 944.671 568.141 943.727 568.141C943.727 560.506 943.727 552.871 943.727 545.004Z" fill="#39455B"/>
<path d="M621.08 513.48C621.937 513.484 622.795 513.488 623.679 513.492C625.782 513.503 627.885 513.52 629.987 513.538C629.987 514.148 629.987 514.759 629.987 515.389C627.018 515.57 624.049 515.742 621.08 515.909C620.243 515.961 619.407 516.013 618.545 516.066C614.957 516.263 611.677 516.34 608.101 515.877C607.383 515.716 606.665 515.555 605.925 515.389C605.925 515.083 605.925 514.778 605.925 514.463C610.999 513.393 615.923 513.432 621.08 513.48Z" fill="#FAF6EC"/>
<path d="M916.887 437.647C918.738 440.424 918.738 440.424 920.474 444.01C921.682 446.473 922.855 448.381 924.523 450.604C925.057 451.215 925.592 451.826 926.142 452.455C924.921 451.844 923.699 451.234 922.44 450.604C920.662 449.006 920.662 449.006 918.97 447.249C918.402 446.665 917.834 446.08 917.249 445.478C916.612 444.809 916.612 444.809 915.962 444.126C916.267 441.988 916.573 439.85 916.887 437.647Z" fill="#4A761C"/>
<path d="M541.141 431.169C542.363 431.169 543.585 431.169 544.843 431.169C544.924 433.636 544.917 436.106 544.843 438.573C543.927 439.947 543.927 439.947 542.992 441.349C541.141 437.647 541.141 437.647 540.216 434.871C540.521 433.649 540.827 432.428 541.141 431.169Z" fill="#D8281D"/>
<path d="M257.943 257.179C257.943 258.095 257.943 259.011 257.943 259.955C254.889 263.009 251.835 266.063 248.688 269.21C248.077 269.21 247.466 269.21 246.837 269.21C247.448 267.988 248.059 266.767 248.688 265.508C250.188 263.794 250.188 263.794 251.869 262.153C252.422 261.607 252.974 261.06 253.543 260.497C255.166 259.03 255.166 259.03 257.943 257.179Z" fill="#172740"/>
<path d="M981.672 668.094C983.199 668.399 984.726 668.705 986.299 669.019C985.418 670.392 984.53 671.76 983.639 673.126C983.145 673.888 982.651 674.651 982.142 675.436C981.681 676.067 981.221 676.698 980.746 677.349C979.83 677.807 979.83 677.807 978.896 678.274C979.812 674.915 980.728 671.555 981.672 668.094Z" fill="#223939"/>
<path d="M891.9 663.467C892.206 664.688 892.511 665.91 892.826 667.169C890.993 670.528 889.161 673.888 887.273 677.349C886.662 677.349 886.051 677.349 885.422 677.349C886.684 672.876 888.664 669.103 890.953 665.094C891.266 664.557 891.578 664.02 891.9 663.467Z" fill="#28344C"/>
<path d="M1002.96 686.603C1003.87 686.603 1004.79 686.603 1005.73 686.603C1005.73 687.519 1005.73 688.435 1005.73 689.379C1003.6 690.959 1001.44 692.5 999.255 694.006C998.644 694.006 998.034 694.006 997.404 694.006C998.015 692.785 998.626 691.563 999.255 690.304C1000.45 689.036 1001.68 687.793 1002.96 686.603Z" fill="#1F3635"/>
<path d="M748.45 924.452C747.839 925.979 747.228 927.506 746.599 929.08C745.682 928.774 744.766 928.469 743.822 928.154C743.822 927.543 743.822 926.932 743.822 926.303C741.99 926.914 740.157 927.525 738.269 928.154C737.048 927.543 735.826 926.932 734.567 926.303C736.534 925.993 738.5 925.685 740.467 925.378C741.563 925.206 742.658 925.034 743.786 924.857C746.599 924.452 746.599 924.452 748.45 924.452Z" fill="#393D49"/>
<path d="M209.818 875.401C210.428 875.707 211.039 876.012 211.669 876.327C209.836 879.076 208.004 881.824 206.116 884.656C205.505 884.656 204.894 884.656 204.265 884.656C204.959 882.111 204.959 882.111 206.116 879.103C208.082 876.905 208.082 876.905 209.818 875.401Z" fill="#DEDFE3"/>
<path d="M910.409 638.479C911.325 638.784 912.241 639.089 913.185 639.404C910.436 643.069 910.436 643.069 907.632 646.808C907.021 645.892 906.411 644.975 905.781 644.031C907.308 642.199 908.835 640.367 910.409 638.479Z" fill="#1C2A43"/>
<path d="M315.323 554.259C315.628 554.259 315.934 554.259 316.248 554.259C316.554 555.786 316.859 557.313 317.174 558.886C320.381 560.719 320.381 560.719 323.652 562.588C322.736 563.199 321.82 563.81 320.876 564.439C319.349 563.523 317.822 562.607 316.248 561.663C316.248 561.052 316.248 560.441 316.248 559.812C315.638 559.506 315.027 559.201 314.397 558.886C314.703 557.359 315.008 555.832 315.323 554.259Z" fill="#5E8638"/>
<path d="M878.943 1014.22C879.554 1014.22 880.164 1014.22 880.794 1014.22C880.1 1016.42 880.1 1016.42 878.943 1018.85C877.11 1019.77 877.11 1019.77 875.241 1020.7C874.936 1021.62 874.63 1022.53 874.315 1023.48C874.547 1021.45 874.547 1021.45 875.241 1018.85C877.15 1016.25 877.15 1016.25 878.943 1014.22Z" fill="#D9DADF"/>
<path d="M446.742 892.061C451.018 892.061 455.293 892.061 459.699 892.061C459.699 892.366 459.699 892.671 459.699 892.986C458.553 893.12 457.408 893.253 456.228 893.391C452.306 893.835 452.306 893.835 448.593 894.837C447.677 894.532 446.76 894.226 445.816 893.912C446.122 893.301 446.427 892.69 446.742 892.061Z" fill="#374359"/>
<path d="M330.132 507.06C332.272 507.812 332.272 507.812 334.759 508.911C335.675 509.827 336.592 510.743 337.536 511.687C338.757 512.298 339.979 512.909 341.238 513.538C340.321 514.149 339.405 514.76 338.461 515.389C335.713 512.946 332.964 510.502 330.132 507.985C330.132 507.68 330.132 507.374 330.132 507.06Z" fill="#DB4034"/>
<path d="M541.142 353.43C541.753 353.735 542.364 354.041 542.993 354.355C541.825 356.248 540.584 358.098 539.291 359.908C538.375 360.213 537.459 360.519 536.515 360.834C536.82 359.612 537.125 358.39 537.44 357.132C539.349 355.049 539.349 355.049 541.142 353.43Z" fill="#E9E7E9"/>
<path d="M459.699 346.024C460.31 346.024 460.921 346.024 461.55 346.024C460.856 348.107 460.856 348.107 459.699 350.652C457.732 352.792 457.732 352.792 455.997 354.354C456.286 352.271 456.286 352.271 456.923 349.726C458.369 347.586 458.369 347.586 459.699 346.024Z" fill="#F58C2E"/>
<path d="M376.405 786.555C377.322 786.86 378.238 787.166 379.182 787.48C380.139 789.315 381.063 791.167 381.958 793.033C381.958 793.644 381.958 794.255 381.958 794.884C381.042 794.579 380.126 794.273 379.182 793.959C378.224 792.124 377.301 790.271 376.405 788.406C376.405 787.795 376.405 787.184 376.405 786.555Z" fill="#EAEFDE"/>
<path d="M331.057 753.238C333.806 753.544 336.555 753.849 339.387 754.164C339.387 754.775 339.387 755.385 339.387 756.015C336.333 755.709 333.278 755.404 330.132 755.089C330.437 754.478 330.743 753.868 331.057 753.238Z" fill="#6D9535"/>
<path d="M937.248 592.204C937.859 593.12 938.47 594.037 939.099 594.981C938.488 596.508 937.877 598.035 937.248 599.608C936.332 599.913 935.416 600.219 934.472 600.533C935.388 597.785 936.304 595.036 937.248 592.204Z" fill="#374257"/>
<path d="M330.131 507.984C331.658 508.901 333.185 509.817 334.758 510.761C334.148 511.372 333.537 511.982 332.907 512.612C332.907 512.001 332.907 511.39 332.907 510.761C331.991 510.761 331.075 510.761 330.131 510.761C329.826 511.982 329.52 513.204 329.205 514.463C328.595 514.463 327.984 514.463 327.354 514.463C327.948 512.604 328.566 510.753 329.205 508.91C329.511 508.604 329.816 508.299 330.131 507.984Z" fill="#E7E0E0"/>
<path d="M729.94 962.397C730.246 963.008 730.551 963.619 730.866 964.248C729.949 966.081 729.033 967.913 728.089 969.801C727.478 969.801 726.868 969.801 726.238 969.801C726.849 967.663 727.46 965.526 728.089 963.323C728.7 963.018 729.311 962.712 729.94 962.397Z" fill="#302C34"/>
<path d="M878.018 907.793C878.629 908.098 879.239 908.404 879.869 908.718C878.342 910.551 876.815 912.383 875.241 914.271C874.325 913.661 873.409 913.05 872.465 912.42C874.297 910.893 876.13 909.366 878.018 907.793Z" fill="#242735"/>
<path d="M293.112 393.225C293.417 393.225 293.723 393.225 294.037 393.225C294.343 395.668 294.648 398.111 294.963 400.628C294.352 400.628 293.741 400.628 293.112 400.628C292.806 401.85 292.501 403.072 292.186 404.33C292.145 401.863 292.15 399.394 292.186 396.927C292.492 395.705 292.797 394.483 293.112 393.225Z" fill="#B8352B"/>
<path d="M877.091 697.709C877.397 697.709 877.702 697.709 878.017 697.709C878.017 699.236 878.017 700.763 878.017 702.336C878.628 702.336 879.239 702.336 879.868 702.336C879.868 702.947 879.868 703.558 879.868 704.187C879.257 704.187 878.646 704.187 878.017 704.187C877.712 705.104 877.406 706.02 877.091 706.964C876.786 706.964 876.481 706.964 876.166 706.964C876.471 703.91 876.777 700.856 877.091 697.709Z" fill="#3D3D50"/>
<path d="M534.663 522.792C535.274 522.792 535.885 522.792 536.514 522.792C535.903 524.014 535.292 525.235 534.663 526.494C532.696 528.114 532.696 528.114 530.961 529.27C530.961 528.354 530.961 527.438 530.961 526.494C532.183 525.272 533.404 524.051 534.663 522.792Z" fill="#FCECD1"/>
<path d="M540.216 450.604C540.521 451.521 540.827 452.437 541.141 453.381C540.288 455.57 539.367 457.734 538.365 459.859C538.06 458.943 537.754 458.027 537.439 457.083C538.249 454.191 538.249 454.191 539.29 451.53C539.596 451.225 539.901 450.919 540.216 450.604Z" fill="#D42016"/>
<path d="M309.77 347.876C310.076 349.098 310.381 350.319 310.696 351.578C309.78 353.105 308.863 354.632 307.919 356.205C307.309 356.205 306.698 356.205 306.068 356.205C307.185 353.333 308.388 350.641 309.77 347.876Z" fill="#CD3726"/>
<path d="M476.357 869.85C476.968 869.85 477.579 869.85 478.208 869.85C477.597 871.071 476.986 872.293 476.357 873.552C475.746 874.162 475.135 874.773 474.506 875.403C473.59 875.097 472.673 874.792 471.729 874.477C473.257 872.95 474.784 871.423 476.357 869.85Z" fill="#F98328"/>
<path d="M940.95 580.172C941.866 580.172 942.782 580.172 943.726 580.172C943.421 582.004 943.116 583.837 942.801 585.725C941.885 586.03 940.968 586.336 940.024 586.65C940.33 584.512 940.635 582.375 940.95 580.172Z" fill="#1B2840"/>
<path d="M618.882 513.537C618.882 513.843 618.882 514.148 618.882 514.463C615.527 515.446 615.527 515.446 611.478 516.314C608.239 515.967 608.239 515.967 605.925 515.388C605.925 515.083 605.925 514.778 605.925 514.463C610.292 513.59 614.434 513.461 618.882 513.537Z" fill="#FBE0B3"/>
<path d="M711.431 331.217C712.042 332.133 712.652 333.049 713.282 333.993C713.397 336.943 713.397 336.943 713.282 339.546C710.991 338.63 710.991 338.63 708.654 337.695C709.876 337.39 711.098 337.084 712.356 336.77C712.051 334.937 711.745 333.105 711.431 331.217Z" fill="#283C3C"/>
<path d="M672.56 319.187C674.698 319.797 676.836 320.408 679.038 321.037C679.038 321.648 679.038 322.259 679.038 322.888C674.915 321.972 674.915 321.972 670.709 321.037C671.32 320.427 671.931 319.816 672.56 319.187Z" fill="#2C354C"/>
</svg>
